<svg width="134" height="30" viewBox="0 0 134 30" fill="none" xmlns="http://www.w3.org/2000/svg">
<g clip-path="url(#clip0_35_294)">
<path d="M29.1875 25.3206V10.4324H35.3948C36.3378 10.4324 37.1999 10.6488 37.9815 11.081C38.7626 11.5138 39.3856 12.1165 39.85 12.8889C40.3143 13.6618 40.5468 14.5585 40.5468 15.5795C40.5468 16.6005 40.3176 17.48 39.8604 18.2596C39.4027 19.0398 38.7835 19.6457 38.0025 20.078C37.2214 20.5108 36.345 20.7266 35.3739 20.7266H31.6998V25.3206H29.1875ZM31.6998 18.4932H35.0781C35.6273 18.4932 36.123 18.38 36.5664 18.1531C37.0099 17.9267 37.3613 17.5932 37.6224 17.1532C37.8829 16.7137 38.0129 16.196 38.0129 15.6006C38.0129 15.0052 37.8824 14.4486 37.6224 14.0158C37.3618 13.5836 37.0099 13.2501 36.5664 13.0159C36.123 12.7818 35.6339 12.6652 35.099 12.6652H31.6998V18.4932Z" fill="#F0B419"/>
<path d="M42.5947 25.3206V17.5572C42.5947 16.5934 42.8657 15.8382 43.4078 15.2922C43.9498 14.7461 44.6989 14.4731 45.6562 14.4731H48.2534V16.5573H46.0997C45.762 16.5573 45.4982 16.6566 45.3081 16.8553C45.1181 17.0539 45.0233 17.323 45.0233 17.6637V25.3206H42.5953H42.5947Z" fill="#F0B419"/>
<path d="M51.1459 12.9632C50.7234 12.9632 50.3576 12.8073 50.0481 12.4955C49.7385 12.1836 49.5837 11.8146 49.5837 11.3896C49.5837 10.9645 49.7385 10.5955 50.0481 10.2837C50.3576 9.97184 50.7239 9.81592 51.1459 9.81592C51.5678 9.81592 51.9512 9.97184 52.2541 10.2837C52.5566 10.5955 52.708 10.9645 52.708 11.3896C52.708 11.8146 52.5566 12.1836 52.2541 12.4955C51.9512 12.8073 51.5816 12.9632 51.1459 12.9632ZM49.9423 25.3206V14.4731H52.3704V25.3206H49.9423Z" fill="#F0B419"/>
<path d="M55.2837 25.3205V19.0675C55.2837 18.1314 55.4947 17.2991 55.9172 16.5683C56.3396 15.838 56.9373 15.2637 57.7118 14.8454C58.4857 14.4275 59.3935 14.2178 60.4356 14.2178C61.4778 14.2178 62.3812 14.427 63.1485 14.8454C63.9152 15.2637 64.5101 15.838 64.9326 16.5683C65.3551 17.2985 65.5661 18.1314 65.5661 19.0675V25.3205H63.1589V19.0886C63.1589 18.5354 63.0322 18.0498 62.7789 17.6314C62.5255 17.2136 62.1911 16.8868 61.7758 16.6532C61.3605 16.419 60.9066 16.3025 60.4141 16.3025C59.9217 16.3025 59.4882 16.4196 59.0734 16.6532C58.6581 16.8873 58.327 17.2136 58.0808 17.6314C57.8346 18.0498 57.7112 18.5354 57.7112 19.0886V25.3205H55.2831H55.2837Z" fill="#F0B419"/>
<path d="M67.2764 16.5577V14.4736H74.8983V16.5577H67.2764ZM72.1959 25.3205C71.2386 25.3205 70.4889 25.0442 69.9474 24.491C69.4054 23.9377 69.1344 23.1864 69.1344 22.2364V11.7507H71.5415V22.1299C71.5415 22.4562 71.6401 22.722 71.8373 22.9273C72.0345 23.1331 72.2945 23.2358 72.6184 23.2358H74.8774V25.32H72.1959V25.3205Z" fill="#F0B419"/>
<path d="M77.1787 25.3205V18.8333C77.1787 17.9966 77.3759 17.2275 77.7698 16.5256C78.1636 15.8236 78.7337 15.2637 79.4801 14.8454C80.2259 14.4275 81.1199 14.2178 82.1615 14.2178C82.6683 14.2178 83.1541 14.2816 83.6185 14.4092C84.0828 14.5368 84.5158 14.7388 84.9168 15.0151C85.3178 15.2915 85.6593 15.6355 85.9408 16.0467H85.9617C86.2432 15.6355 86.5847 15.2915 86.9857 15.0151C87.3867 14.7388 87.823 14.5368 88.2945 14.4092C88.766 14.2816 89.2551 14.2178 89.7619 14.2178C90.8179 14.2178 91.7152 14.427 92.4538 14.8454C93.193 15.2637 93.7593 15.8236 94.1537 16.5256C94.5475 17.2275 94.7447 17.9966 94.7447 18.8333V25.3205H92.3376V18.8333C92.3376 18.3656 92.2214 17.94 91.9895 17.5571C91.757 17.1742 91.4513 16.8696 91.0712 16.6426C90.6912 16.4162 90.2549 16.3025 89.7619 16.3025C89.2689 16.3025 88.847 16.4162 88.4531 16.6426C88.0587 16.8696 87.7459 17.1742 87.5134 17.5571C87.281 17.94 87.1653 18.3656 87.1653 18.8333V25.3205H84.7582V18.8333C84.7582 18.3656 84.6386 17.94 84.399 17.5571C84.1594 17.1742 83.8465 16.8696 83.4593 16.6426C83.0721 16.4162 82.6391 16.3025 82.161 16.3025C81.6829 16.3025 81.2494 16.4162 80.8627 16.6426C80.4754 16.8696 80.1659 17.1742 79.9334 17.5571C79.701 17.94 79.5853 18.3656 79.5853 18.8333V25.3205H77.1782H77.1787Z" fill="#F0B419"/>
<path d="M103.106 25.3205C101.896 25.3205 100.836 25.0902 99.9286 24.6291C99.0209 24.1686 98.3136 23.5305 97.8068 22.7148C97.3001 21.8996 97.0467 20.9602 97.0467 19.8965C97.0467 18.7767 97.2714 17.7907 97.7226 16.9401C98.1731 16.0894 98.7923 15.423 99.5805 14.9408C100.369 14.4591 101.277 14.2178 102.304 14.2178C103.458 14.2178 104.409 14.4658 105.155 14.9624C105.901 15.4591 106.453 16.1255 106.812 16.9617C107.172 17.7985 107.351 18.7346 107.351 19.7694C107.351 19.9115 107.343 20.0746 107.33 20.2588C107.315 20.4431 107.294 20.5851 107.266 20.6844H99.6229C99.7072 21.2515 99.911 21.7232 100.235 22.0988C100.559 22.4745 100.967 22.758 101.46 22.9495C101.952 23.1409 102.502 23.2364 103.107 23.2364H105.999V25.3205H103.107H103.106ZM99.6015 19.0253H104.922C104.908 18.7562 104.869 18.4865 104.806 18.2168C104.742 17.9477 104.644 17.6925 104.51 17.4511C104.376 17.2103 104.207 17.0011 104.003 16.8235C103.799 16.6465 103.556 16.5045 103.275 16.3979C102.993 16.2914 102.67 16.2381 102.304 16.2381C101.881 16.2381 101.508 16.3197 101.185 16.4828C100.861 16.646 100.586 16.8585 100.361 17.1209C100.136 17.3834 99.9633 17.6814 99.8438 18.0143C99.7243 18.3478 99.6433 18.6841 99.6009 19.0248L99.6015 19.0253Z" fill="#F0B419"/>
<path d="M114.761 25.5759C113.72 25.5759 112.811 25.3667 112.038 24.9483C111.263 24.5305 110.665 23.9523 110.243 23.2148C109.82 22.478 109.609 21.6484 109.609 20.7262V14.4731H112.038V20.7051C112.038 21.2583 112.16 21.7438 112.407 22.1622C112.653 22.5806 112.984 22.9069 113.4 23.1405C113.815 23.3747 114.269 23.4912 114.761 23.4912C115.254 23.4912 115.708 23.3741 116.123 23.1405C116.538 22.9063 116.869 22.5806 117.116 22.1622C117.362 21.7444 117.485 21.2583 117.485 20.7051V14.4731H119.913V20.7262C119.913 21.6478 119.702 22.4774 119.28 23.2148C118.857 23.9523 118.259 24.5305 117.485 24.9483C116.711 25.3661 115.803 25.5759 114.761 25.5759Z" fill="#F0B419"/>
<path d="M128.337 14.2185C129.21 14.2185 129.991 14.3567 130.681 14.633C131.371 14.9093 131.958 15.3105 132.444 15.8349C132.93 16.3598 133.302 16.9802 133.564 17.696C133.824 18.4123 133.954 19.2031 133.954 20.0676C133.954 21.1596 133.733 22.1201 133.289 22.9497C132.846 23.7792 132.233 24.4246 131.452 24.8851C130.671 25.3457 129.767 25.5765 128.739 25.5765C128.233 25.5765 127.754 25.4983 127.304 25.3423C126.853 25.1864 126.445 24.9667 126.079 24.6831C125.713 24.3996 125.418 24.0661 125.193 23.6832H125.172V30.0001H122.744V20.0249C122.744 18.8196 122.979 17.7848 123.451 16.9197C123.922 16.0552 124.581 15.3882 125.425 14.9204C126.269 14.4527 127.241 14.2185 128.339 14.2185H128.337ZM128.337 16.3027C127.732 16.3027 127.19 16.4553 126.712 16.7599C126.233 17.0651 125.86 17.4868 125.592 18.0256C125.325 18.5644 125.191 19.1886 125.191 19.8972C125.191 20.6058 125.325 21.2129 125.592 21.7583C125.86 22.3043 126.233 22.7299 126.712 23.0346C127.19 23.3397 127.739 23.4918 128.359 23.4918C128.978 23.4918 129.523 23.3359 129.995 23.024C130.467 22.7122 130.836 22.2871 131.104 21.7478C131.371 21.209 131.504 20.5925 131.504 19.8972C131.504 19.202 131.371 18.5644 131.104 18.0256C130.836 17.4868 130.463 17.0651 129.984 16.7599C129.506 16.4553 128.956 16.3027 128.337 16.3027Z" fill="#F0B419"/>
<path d="M20.7272 11.4166C20.8429 11.4727 20.9542 11.547 21.0572 11.6314C21.0572 11.6314 21.4196 8.61776 19.9979 8.92905C19.598 9.01672 19.3375 9.33634 19.2009 9.72642C18.9844 10.3423 19.2841 10.9178 19.9329 11.1469C20.1973 11.2402 20.4777 11.2951 20.7278 11.4166H20.7272Z" fill="url(#paint0_linear_35_294)"/>
<path d="M25.0017 2.07628L18.7944 0.0753568C18.0067 -0.178227 17.1683 0.227951 16.8516 0.997025C16.3266 2.27216 15.2239 3.24432 13.8716 3.58225C13.6408 3.63995 13.4816 3.85303 13.4805 4.09219V4.1044C13.4777 4.61378 13.8804 4.94006 14.3712 4.81798C14.792 4.71366 15.1286 4.45952 15.4558 4.18929C15.5637 4.09996 15.6755 4.01006 15.7989 3.94736C16.1443 3.77202 16.4528 3.8891 16.6092 4.247C16.742 4.55053 16.7464 4.87236 16.7199 5.1953C16.7078 5.34679 16.6819 5.49772 16.6582 5.64809C16.6131 5.93774 16.7122 6.07758 17.0042 6.11919C17.1286 6.13695 17.2548 6.13861 17.3798 6.15304C17.6921 6.18855 17.9229 6.46544 17.8954 6.78062C17.8844 6.9038 17.8552 7.02588 17.8265 7.14684C17.7604 7.42706 17.8199 7.67066 18.0348 7.86487C18.2446 8.05464 18.4837 8.07184 18.7387 7.96697C18.9816 7.86709 19.1783 7.70617 19.3529 7.51196C19.6856 7.14185 20.0453 6.80281 20.4722 6.54313C20.7564 6.37056 21.055 6.23461 21.3943 6.22018C21.9716 6.19577 22.2954 6.63413 22.1115 7.1879C22.0514 7.3688 21.9644 7.52972 21.8581 7.67621C22.0757 7.58188 22.3186 7.53638 22.5731 7.55358L24.0069 7.65124C24.4095 7.67843 24.7676 7.39599 24.837 6.99591L25.5382 2.97076C25.6065 2.57956 25.3773 2.19725 25.0017 2.07628Z" fill="url(#paint1_linear_35_294)"/>
<path d="M4.7085 9.20277L4.6099 10.7931C4.54821 11.7841 5.25327 12.6453 6.22714 12.7996C6.2354 12.8007 6.24367 12.8023 6.25138 12.8034C6.67387 12.8722 6.96526 12.7785 7.16631 12.6087C7.53371 12.2985 7.49461 11.808 7.0969 11.5388L7.0914 11.535C6.90742 11.4112 6.74272 11.2719 6.63861 11.0722C6.464 10.7376 6.56756 10.4407 6.91183 10.2959C7.05008 10.2376 7.1944 10.1944 7.33486 10.1422C7.78489 9.97518 8.03773 9.62116 8.19306 9.19001C8.29001 8.92033 8.20628 8.68173 7.94408 8.54357C7.68079 8.4054 7.3938 8.30885 7.11178 8.2123C6.77797 8.09799 6.4304 8.02031 6.10265 7.89157C5.91868 7.81944 5.74406 7.69625 5.59754 7.56031C5.27255 7.25789 5.11832 6.87779 5.26539 6.43721C5.42293 5.965 5.77326 5.69422 6.26074 5.63207C6.77136 5.5677 7.15695 5.8113 7.46651 6.19639C7.74083 6.53709 8.0515 6.8384 8.43873 7.03871C8.63593 7.14081 8.85681 7.22404 9.07494 7.25401C9.47209 7.30783 9.78717 6.92052 9.66433 6.53598C9.59493 6.31958 9.46989 6.12148 9.39718 5.90563C9.33328 5.7153 9.26223 5.50833 9.27655 5.31467C9.31841 4.75202 9.89238 4.4263 10.4416 4.63327C10.5671 4.68044 10.6773 4.767 10.8012 4.81916C10.9467 4.88075 11.0959 4.95122 11.2496 4.97342C11.4815 5.00727 11.6958 4.84247 11.7305 4.60941C11.7619 4.39856 11.7669 4.17494 11.7316 3.9663L11.7294 3.95465C11.6886 3.71604 11.5201 3.52294 11.2948 3.43915C10.1865 3.02465 9.29032 2.17013 8.8155 1.08588C8.4839 0.32901 7.63286 -0.0460938 6.85729 0.225246L0.530439 2.43703C0.155873 2.56798 -0.0644595 2.95918 0.0165128 3.34982L0.775559 7.02206C0.85598 7.41049 1.20796 7.67961 1.60126 7.65297L3.05766 7.55365C3.98856 7.49039 4.76358 8.26446 4.70905 9.20277H4.7085Z" fill="url(#paint2_linear_35_294)"/>
<path d="M21.5849 15.7181C21.3728 15.5406 21.2258 15.2981 21.2021 15.0212L21.0969 13.7727C21.0357 13.0452 20.4777 12.4326 19.755 12.3749C19.7154 12.3716 19.6757 12.3699 19.6355 12.3699C19.3986 12.3699 19.1695 12.4249 18.9552 12.5331C18.7173 12.6535 18.5234 12.8322 18.3835 13.0458C18.1483 12.4842 17.5991 12.1136 16.9882 12.1136C16.7513 12.1136 16.5222 12.1685 16.3079 12.2767C16.065 12.3994 15.8689 12.5825 15.7285 12.8016C15.4718 12.2995 14.954 11.9749 14.3822 11.9749C14.1454 11.9749 13.9162 12.0298 13.7019 12.138C13.4651 12.2573 13.2723 12.4354 13.1324 12.6474L12.4312 10.6276C12.2163 10.0083 11.6484 9.56055 10.9968 9.555C10.7555 9.55278 10.522 9.60771 10.3039 9.71758C9.62689 10.0588 9.31016 10.874 9.56685 11.6131L11.0816 15.9773C10.9841 15.8569 10.863 15.7664 10.7357 15.7231C10.6035 15.6782 10.4504 15.6749 10.3088 15.6837C9.97391 15.7054 9.67481 15.8469 9.38122 16.0006C9.21872 16.0855 9.05678 16.177 8.88547 16.2397C8.41341 16.4134 7.88736 16.1016 7.8455 15.5972C7.82567 15.3586 7.8791 15.1139 7.90389 14.8725C7.90829 14.8303 7.9127 14.7881 7.91766 14.746C7.96999 14.2849 7.26327 13.801 6.83748 14.2776C6.82646 14.2904 6.26957 15.3525 5.55128 15.2476C4.17971 15.0473 4.27611 16.1593 4.22708 16.9483L3.83599 23.2524C3.78367 24.0947 4.45513 24.8039 5.29294 24.7905L10.4278 24.709C11.5218 24.6918 11.5559 22.7214 8.79458 19.0058C8.15562 18.1458 9.02152 17.5937 9.2011 17.5348C10.4526 17.1242 11.8792 19.2311 12.1706 19.7694C12.3552 20.1106 12.7749 20.1861 12.7303 19.735C12.7049 19.4769 12.6008 19.0552 12.3662 18.3883L10.121 11.4394C9.97612 10.991 10.1662 10.4867 10.5886 10.2852C11.1004 10.0411 11.692 10.3102 11.8616 10.8346L13.3984 15.51C13.6783 16.3612 13.8683 17.2518 13.8281 18.1474C13.8215 18.2911 13.8551 18.441 13.936 18.5819C14.0842 18.8394 14.3784 18.9903 14.6725 18.9598C15.1826 18.9071 15.4872 18.4071 15.3401 17.9438C15.3142 17.8628 15.2768 17.789 15.2294 17.7241C14.7023 16.9927 14.2296 16.2225 13.9438 15.3658L13.4656 13.9331C13.3208 13.4847 13.5103 12.9803 13.9333 12.7789C14.4445 12.5347 15.0372 12.8039 15.2063 13.3282L16.2341 16.4095C16.5294 17.2951 16.6147 18.2268 16.6191 19.1607C16.6191 19.2872 16.6511 19.4165 16.7183 19.5396C16.8643 19.8071 17.165 19.9664 17.4663 19.9347C17.9753 19.8809 18.2794 19.3815 18.1323 18.9187C18.1042 18.8311 18.0629 18.7523 18.0105 18.6835C17.5159 18.0326 17.1347 17.3023 16.8742 16.526L16.0689 14.1289C15.924 13.6806 16.1135 13.1762 16.5365 12.9748C17.0477 12.7306 17.6398 12.9997 17.8095 13.5241L19.2185 17.7191C19.4967 18.5469 19.6757 19.4187 19.6162 20.2904C19.6063 20.4375 19.6377 20.5906 19.7187 20.7349C19.8658 20.9973 20.1638 21.1521 20.4612 21.1211C20.9702 21.0678 21.2742 20.5678 21.1272 20.1051C21.098 20.013 21.0533 19.9303 20.9966 19.8587C20.4662 19.1851 20.0569 18.4227 19.7815 17.6086L18.7096 14.4441C18.5647 13.9958 18.7547 13.4914 19.1772 13.2899C19.6889 13.0458 20.2805 13.3149 20.4502 13.8393L20.8595 15.1061C20.9426 15.363 20.8942 15.6366 20.7625 15.8718C20.6837 16.0128 20.6661 16.1892 20.7383 16.3601C20.817 16.5477 21.0032 16.6781 21.2054 16.687C21.57 16.7031 21.8322 16.3801 21.7711 16.0416C21.7474 15.9101 21.6791 15.7986 21.5843 15.7198L21.5849 15.7181Z" fill="url(#paint3_linear_35_294)"/>
</g>
<defs>
<linearGradient id="paint0_linear_35_294" x1="4.69197" y1="23.618" x2="25.0495" y2="6.63022" gradientUnits="userSpaceOnUse">
<stop offset="0.27" stop-color="#C89102"/>
<stop offset="0.28" stop-color="#C89102"/>
<stop offset="0.49" stop-color="#C89102"/>
<stop offset="0.73" stop-color="#F0B419"/>
<stop offset="1" stop-color="#F0B419"/>
</linearGradient>
<linearGradient id="paint1_linear_35_294" x1="1.78687" y1="20.1362" x2="22.1439" y2="3.1484" gradientUnits="userSpaceOnUse">
<stop offset="0.27" stop-color="#C89102"/>
<stop offset="0.28" stop-color="#C89102"/>
<stop offset="0.49" stop-color="#C89102"/>
<stop offset="0.73" stop-color="#F0B419"/>
<stop offset="1" stop-color="#F0B419"/>
</linearGradient>
<linearGradient id="paint2_linear_35_294" x1="-3.54406" y1="13.7484" x2="16.8135" y2="-3.2394" gradientUnits="userSpaceOnUse">
<stop offset="0.27" stop-color="#C89102"/>
<stop offset="0.28" stop-color="#C89102"/>
<stop offset="0.49" stop-color="#C89102"/>
<stop offset="0.73" stop-color="#F0B419"/>
<stop offset="1" stop-color="#F0B419"/>
</linearGradient>
<linearGradient id="paint3_linear_35_294" x1="5.14091" y1="24.1558" x2="25.4979" y2="7.16739" gradientUnits="userSpaceOnUse">
<stop offset="0.27" stop-color="#C89102"/>
<stop offset="0.28" stop-color="#C89102"/>
<stop offset="0.49" stop-color="#C89102"/>
<stop offset="0.73" stop-color="#F0B419"/>
<stop offset="1" stop-color="#F0B419"/>
</linearGradient>
<clipPath id="clip0_35_294">
<rect width="133.953" height="30" fill="white"/>
</clipPath>
</defs>
</svg>
