<svg width="38" height="26" viewBox="0 0 38 26" fill="none" xmlns="http://www.w3.org/2000/svg">
<path d="M37.2423 12.8901L35.0451 10.0704L31.493 3.00282C31.3953 2.80751 31.2549 2.65493 31.0718 2.54507C30.8887 2.43521 30.6751 2.38028 30.431 2.38028H25.4141V1.17183C25.4141 0.85446 25.2981 0.579811 25.0662 0.347887C24.8343 0.115961 24.5596 0 24.2423 0H4.54085C4.19906 0 3.91221 0.115961 3.68028 0.347887C3.44836 0.579811 3.33239 0.85446 3.33239 1.17183C3.33239 1.51361 3.44836 1.80047 3.68028 2.03239C3.91221 2.26432 4.19906 2.38028 4.54085 2.38028H23.0338V10.6197C23.0338 10.9615 23.1498 11.2484 23.3817 11.4803C23.6136 11.7122 23.9005 11.8282 24.2423 11.8282H33.3972L35.1183 14.0254V20.1408H32.9211C32.6526 19.1155 32.0972 18.261 31.2549 17.5775C30.4127 16.8939 29.43 16.5521 28.307 16.5521C27.2085 16.5521 26.238 16.8939 25.3958 17.5775C24.5535 18.261 23.9981 19.1155 23.7296 20.1408H16.7718C16.5033 19.1155 15.9479 18.261 15.1056 17.5775C14.2634 16.8939 13.2808 16.5521 12.1577 16.5521C11.0592 16.5521 10.0887 16.8939 9.24648 17.5775C8.40423 18.261 7.84883 19.1155 7.58028 20.1408H4.54085C4.19906 20.1408 3.91221 20.2568 3.68028 20.4887C3.44836 20.7207 3.33239 20.9953 3.33239 21.3127C3.33239 21.63 3.44836 21.9047 3.68028 22.1366C3.91221 22.3685 4.19906 22.4845 4.54085 22.4845H7.6169C7.88545 23.5099 8.44085 24.3521 9.2831 25.0113C10.1254 25.6704 11.0836 26 12.1577 26C13.2563 26 14.2268 25.6704 15.069 25.0113C15.9113 24.3521 16.4667 23.5099 16.7352 22.4845H23.7662C24.0347 23.5099 24.5901 24.3521 25.4324 25.0113C26.2746 25.6704 27.2329 26 28.307 26C29.4056 26 30.3761 25.6704 31.2183 25.0113C32.0606 24.3521 32.616 23.5099 32.8845 22.4845H36.3268C36.6441 22.4845 36.9188 22.3685 37.1507 22.1366C37.3826 21.9047 37.4986 21.63 37.4986 21.3127V13.6225C37.4986 13.5005 37.4803 13.3784 37.4437 13.2563C37.407 13.1343 37.3399 13.0122 37.2423 12.8901ZM29.7352 4.72394L32.0789 9.44789H25.4141V4.72394H29.7352ZM12.1577 23.6197C11.523 23.6197 10.9737 23.3939 10.5099 22.9423C10.046 22.4906 9.81409 21.9352 9.81409 21.2761C9.81409 20.6169 10.046 20.0554 10.5099 19.5915C10.9737 19.1277 11.523 18.8958 12.1577 18.8958C12.8169 18.8958 13.3784 19.1277 13.8423 19.5915C14.3061 20.0554 14.538 20.6169 14.538 21.2761C14.538 21.9352 14.3061 22.4906 13.8423 22.9423C13.3784 23.3939 12.8169 23.6197 12.1577 23.6197ZM28.307 23.6197C27.6723 23.6197 27.123 23.3939 26.6592 22.9423C26.1953 22.4906 25.9634 21.9352 25.9634 21.2761C25.9634 20.6169 26.1953 20.0554 26.6592 19.5915C27.123 19.1277 27.6723 18.8958 28.307 18.8958C28.9662 18.8958 29.5277 19.1277 29.9916 19.5915C30.4554 20.0554 30.6873 20.6169 30.6873 21.2761C30.6873 21.9352 30.4554 22.4906 29.9916 22.9423C29.5277 23.3939 28.9662 23.6197 28.307 23.6197ZM3.11268 14.1352C2.79531 14.1352 2.52066 14.2512 2.28873 14.4831C2.05681 14.715 1.94085 14.9897 1.94085 15.307C1.94085 15.6488 2.05681 15.9357 2.28873 16.1676C2.52066 16.3995 2.79531 16.5155 3.11268 16.5155H8.53239C8.87418 16.5155 9.16103 16.3995 9.39296 16.1676C9.62488 15.9357 9.74085 15.6488 9.74085 15.307C9.74085 14.9897 9.62488 14.715 9.39296 14.4831C9.16103 14.2512 8.87418 14.1352 8.53239 14.1352H3.11268ZM11.2789 9.48451C11.5962 9.48451 11.8709 9.60047 12.1028 9.83239C12.3347 10.0643 12.4507 10.3512 12.4507 10.693C12.4507 11.0103 12.3347 11.285 12.1028 11.5169C11.8709 11.7488 11.5962 11.8648 11.2789 11.8648H1.17183C0.85446 11.8648 0.579812 11.7488 0.347887 11.5169C0.115962 11.285 0 11.0103 0 10.693C0 10.3512 0.115962 10.0643 0.347887 9.83239C0.579812 9.60047 0.85446 9.48451 1.17183 9.48451H11.2789ZM3.11268 4.8338C2.79531 4.8338 2.52066 4.94976 2.28873 5.18169C2.05681 5.41361 1.94085 5.70047 1.94085 6.04225C1.94085 6.35962 2.05681 6.63427 2.28873 6.8662C2.52066 7.09812 2.79531 7.21408 3.11268 7.21408H13.1831C13.5249 7.21408 13.8117 7.09812 14.0437 6.8662C14.2756 6.63427 14.3916 6.35962 14.3916 6.04225C14.3916 5.70047 14.2756 5.41361 14.0437 5.18169C13.8117 4.94976 13.5249 4.8338 13.1831 4.8338H3.11268ZM37.2423 12.8901L35.0451 10.0704L31.493 3.00282C31.3953 2.80751 31.2549 2.65493 31.0718 2.54507C30.8887 2.43521 30.6751 2.38028 30.431 2.38028H25.4141V1.17183C25.4141 0.85446 25.2981 0.579811 25.0662 0.347887C24.8343 0.115961 24.5596 0 24.2423 0H4.54085C4.19906 0 3.91221 0.115961 3.68028 0.347887C3.44836 0.579811 3.33239 0.85446 3.33239 1.17183C3.33239 1.51361 3.44836 1.80047 3.68028 2.03239C3.91221 2.26432 4.19906 2.38028 4.54085 2.38028H23.0338V10.6197C23.0338 10.9615 23.1498 11.2484 23.3817 11.4803C23.6136 11.7122 23.9005 11.8282 24.2423 11.8282H33.3972L35.1183 14.0254V20.1408H32.9211C32.6526 19.1155 32.0972 18.261 31.2549 17.5775C30.4127 16.8939 29.43 16.5521 28.307 16.5521C27.2085 16.5521 26.238 16.8939 25.3958 17.5775C24.5535 18.261 23.9981 19.1155 23.7296 20.1408H16.7718C16.5033 19.1155 15.9479 18.261 15.1056 17.5775C14.2634 16.8939 13.2808 16.5521 12.1577 16.5521C11.0592 16.5521 10.0887 16.8939 9.24648 17.5775C8.40423 18.261 7.84883 19.1155 7.58028 20.1408H4.54085C4.19906 20.1408 3.91221 20.2568 3.68028 20.4887C3.44836 20.7207 3.33239 20.9953 3.33239 21.3127C3.33239 21.63 3.44836 21.9047 3.68028 22.1366C3.91221 22.3685 4.19906 22.4845 4.54085 22.4845H7.6169C7.88545 23.5099 8.44085 24.3521 9.2831 25.0113C10.1254 25.6704 11.0836 26 12.1577 26C13.2563 26 14.2268 25.6704 15.069 25.0113C15.9113 24.3521 16.4667 23.5099 16.7352 22.4845H23.7662C24.0347 23.5099 24.5901 24.3521 25.4324 25.0113C26.2746 25.6704 27.2329 26 28.307 26C29.4056 26 30.3761 25.6704 31.2183 25.0113C32.0606 24.3521 32.616 23.5099 32.8845 22.4845H36.3268C36.6441 22.4845 36.9188 22.3685 37.1507 22.1366C37.3826 21.9047 37.4986 21.63 37.4986 21.3127V13.6225C37.4986 13.5005 37.4803 13.3784 37.4437 13.2563C37.407 13.1343 37.3399 13.0122 37.2423 12.8901ZM29.7352 4.72394L32.0789 9.44789H25.4141V4.72394H29.7352ZM12.1577 23.6197C11.523 23.6197 10.9737 23.3939 10.5099 22.9423C10.046 22.4906 9.81409 21.9352 9.81409 21.2761C9.81409 20.6169 10.046 20.0554 10.5099 19.5915C10.9737 19.1277 11.523 18.8958 12.1577 18.8958C12.8169 18.8958 13.3784 19.1277 13.8423 19.5915C14.3061 20.0554 14.538 20.6169 14.538 21.2761C14.538 21.9352 14.3061 22.4906 13.8423 22.9423C13.3784 23.3939 12.8169 23.6197 12.1577 23.6197ZM28.307 23.6197C27.6723 23.6197 27.123 23.3939 26.6592 22.9423C26.1953 22.4906 25.9634 21.9352 25.9634 21.2761C25.9634 20.6169 26.1953 20.0554 26.6592 19.5915C27.123 19.1277 27.6723 18.8958 28.307 18.8958C28.9662 18.8958 29.5277 19.1277 29.9916 19.5915C30.4554 20.0554 30.6873 20.6169 30.6873 21.2761C30.6873 21.9352 30.4554 22.4906 29.9916 22.9423C29.5277 23.3939 28.9662 23.6197 28.307 23.6197ZM3.11268 14.1352C2.79531 14.1352 2.52066 14.2512 2.28873 14.4831C2.05681 14.715 1.94085 14.9897 1.94085 15.307C1.94085 15.6488 2.05681 15.9357 2.28873 16.1676C2.52066 16.3995 2.79531 16.5155 3.11268 16.5155H8.53239C8.87418 16.5155 9.16103 16.3995 9.39296 16.1676C9.62488 15.9357 9.74085 15.6488 9.74085 15.307C9.74085 14.9897 9.62488 14.715 9.39296 14.4831C9.16103 14.2512 8.87418 14.1352 8.53239 14.1352H3.11268ZM11.2789 9.48451C11.5962 9.48451 11.8709 9.60047 12.1028 9.83239C12.3347 10.0643 12.4507 10.3512 12.4507 10.693C12.4507 11.0103 12.3347 11.285 12.1028 11.5169C11.8709 11.7488 11.5962 11.8648 11.2789 11.8648H1.17183C0.85446 11.8648 0.579812 11.7488 0.347887 11.5169C0.115962 11.285 0 11.0103 0 10.693C0 10.3512 0.115962 10.0643 0.347887 9.83239C0.579812 9.60047 0.85446 9.48451 1.17183 9.48451H11.2789ZM3.11268 4.8338C2.79531 4.8338 2.52066 4.94976 2.28873 5.18169C2.05681 5.41361 1.94085 5.70047 1.94085 6.04225C1.94085 6.35962 2.05681 6.63427 2.28873 6.8662C2.52066 7.09812 2.79531 7.21408 3.11268 7.21408H13.1831C13.5249 7.21408 13.8117 7.09812 14.0437 6.8662C14.2756 6.63427 14.3916 6.35962 14.3916 6.04225C14.3916 5.70047 14.2756 5.41361 14.0437 5.18169C13.8117 4.94976 13.5249 4.8338 13.1831 4.8338H3.11268Z" fill="#F0B419"/>
</svg>
