<svg width="20" height="21" viewBox="0 0 20 21" fill="none" xmlns="http://www.w3.org/2000/svg">
<g clip-path="url(#clip0_35_371)">
<path d="M-0.00131226 17.8845L8.45256 9.43065L11.0663 12.0444L2.61242 20.4982L-0.00131226 17.8845Z" fill="#F2E2B9"/>
<path d="M12.6269 5.25854L9.28943 8.59643L11.9035 11.2105L15.2414 7.87309L12.6269 5.25854Z" fill="#F2E2B9"/>
<path d="M5.86896 8.62318L7.30495 5.99758L9.93055 4.56159L7.30495 3.1256L5.86896 0.5L4.43297 3.1256L1.80737 4.56159L4.43297 5.99758L5.86896 8.62318Z" fill="#F2E2B9"/>
<path d="M16.5677 7.36454L17.7812 5.14573L20 3.93229L17.7812 2.71881L16.5677 0.5L15.3542 2.71881L13.1354 3.93229L15.3542 5.14573L16.5677 7.36454Z" fill="#F2E2B9"/>
<path d="M16.5677 9.62549L15.3542 11.8443L13.1354 13.0578L15.3542 14.2712L16.5677 16.49L17.7812 14.2712L20 13.0578L17.7812 11.8443L16.5677 9.62549Z" fill="#F2E2B9"/>
</g>
<defs>
<clipPath id="clip0_35_371">
<rect width="20" height="20" fill="white" transform="translate(0 0.5)"/>
</clipPath>
</defs>
</svg>
