<svg width="30" height="26" viewBox="0 0 30 26" fill="none" xmlns="http://www.w3.org/2000/svg">
<path d="M29.1629 2.87277L22.6629 0.0870552C22.5469 0.0290184 22.4211 0 22.2857 0C22.1503 0 22.0246 0.0290184 21.9085 0.0870552L15.4085 2.87277C15.2537 2.9308 15.1231 3.0372 15.0167 3.19197C14.9103 3.34673 14.8571 3.52083 14.8571 3.71429V7.42857C14.8571 8.70536 14.9829 9.8564 15.2344 10.8817C15.4859 11.9263 15.8873 12.8839 16.4386 13.7545C16.99 14.625 17.7106 15.4472 18.6004 16.221C19.471 16.9754 20.5446 17.7202 21.8214 18.4554C21.8988 18.494 21.9762 18.5231 22.0536 18.5424C22.131 18.5618 22.2083 18.5714 22.2857 18.5714C22.3631 18.5714 22.4405 18.5618 22.5179 18.5424C22.5952 18.5231 22.6726 18.494 22.75 18.4554C24.0268 17.7202 25.1004 16.9754 25.971 16.221C26.8609 15.4665 27.5815 14.6492 28.1328 13.769C28.6842 12.8888 29.0856 11.936 29.3371 10.9107C29.5885 9.86607 29.7143 8.70536 29.7143 7.42857V3.71429C29.7143 3.52083 29.6611 3.34673 29.5547 3.19197C29.4483 3.0372 29.3177 2.9308 29.1629 2.87277ZM27.8571 7.42857C27.8571 8.49256 27.7604 9.45015 27.567 10.3013C27.3735 11.1719 27.0592 11.965 26.6239 12.6808C26.1886 13.3966 25.6131 14.064 24.8973 14.683C24.2009 15.3214 23.3304 15.9501 22.2857 16.5692C21.2411 15.9501 20.3705 15.3214 19.6741 14.683C18.9583 14.064 18.3828 13.3917 17.9475 12.6663C17.5123 11.9408 17.1979 11.1525 17.0045 10.3013C16.811 9.45015 16.7143 8.49256 16.7143 7.42857V4.32366L22.2857 1.9442L27.8571 4.32366V7.42857ZM27.8571 17.6429V24.1429H1.85714V13H12.0714C12.3229 13 12.5406 12.9081 12.7243 12.7243C12.9081 12.5406 13 12.3229 13 12.0714C13 11.8199 12.9081 11.6023 12.7243 11.4185C12.5406 11.2347 12.3229 11.1429 12.0714 11.1429H1.85714V7.42857H12.0714C12.3229 7.42857 12.5406 7.33668 12.7243 7.1529C12.9081 6.96912 13 6.75149 13 6.5C13 6.24851 12.9081 6.03088 12.7243 5.8471C12.5406 5.66332 12.3229 5.57143 12.0714 5.57143H1.85714C1.35417 5.57143 0.918899 5.75037 0.551339 6.10826C0.18378 6.46615 0 6.90625 0 7.42857V24.1429C0 24.6458 0.18378 25.0811 0.551339 25.4487C0.918899 25.8162 1.35417 26 1.85714 26H27.8571C28.3601 26 28.7954 25.8162 29.1629 25.4487C29.5305 25.0811 29.7143 24.6458 29.7143 24.1429V17.6429C29.7143 17.3914 29.6224 17.1737 29.4386 16.99C29.2548 16.8062 29.0372 16.7143 28.7857 16.7143C28.5342 16.7143 28.3166 16.8062 28.1328 16.99C27.949 17.1737 27.8571 17.3914 27.8571 17.6429ZM4.64286 16.7143C4.39137 16.7143 4.17374 16.8062 3.98996 16.99C3.80618 17.1737 3.71429 17.3914 3.71429 17.6429C3.71429 17.8943 3.80618 18.112 3.98996 18.2958C4.17374 18.4795 4.39137 18.5714 4.64286 18.5714H8.35714C8.60863 18.5714 8.82626 18.4795 9.01004 18.2958C9.19382 18.112 9.28571 17.8943 9.28571 17.6429C9.28571 17.3914 9.19382 17.1737 9.01004 16.99C8.82626 16.8062 8.60863 16.7143 8.35714 16.7143H4.64286ZM24.346 5.91964L21.4152 9.57589L20.2835 7.83482C20.1287 7.62202 19.9256 7.49144 19.6741 7.44308C19.4226 7.39472 19.1905 7.43824 18.9777 7.57366C18.7649 7.72842 18.6343 7.93155 18.5859 8.18304C18.5376 8.43452 18.5811 8.66667 18.7165 8.87947L20.5737 11.6652C20.6704 11.7812 20.7816 11.878 20.9074 11.9554C21.0331 12.0327 21.1734 12.0714 21.3281 12.0714H21.3571C21.4926 12.0714 21.6231 12.0424 21.7489 11.9844C21.8746 11.9263 21.9859 11.8393 22.0826 11.7232L25.7969 7.08036C25.9516 6.88691 26.0145 6.6596 25.9855 6.39844C25.9565 6.13728 25.8452 5.92932 25.6518 5.77455C25.4583 5.61979 25.231 5.55692 24.9699 5.58594C24.7087 5.61496 24.5007 5.72619 24.346 5.91964ZM29.1629 2.87277L22.6629 0.0870552C22.5469 0.0290184 22.4211 0 22.2857 0C22.1503 0 22.0246 0.0290184 21.9085 0.0870552L15.4085 2.87277C15.2537 2.9308 15.1231 3.0372 15.0167 3.19197C14.9103 3.34673 14.8571 3.52083 14.8571 3.71429V7.42857C14.8571 8.70536 14.9829 9.8564 15.2344 10.8817C15.4859 11.9263 15.8873 12.8839 16.4386 13.7545C16.99 14.625 17.7106 15.4472 18.6004 16.221C19.471 16.9754 20.5446 17.7202 21.8214 18.4554C21.8988 18.494 21.9762 18.5231 22.0536 18.5424C22.131 18.5618 22.2083 18.5714 22.2857 18.5714C22.3631 18.5714 22.4405 18.5618 22.5179 18.5424C22.5952 18.5231 22.6726 18.494 22.75 18.4554C24.0268 17.7202 25.1004 16.9754 25.971 16.221C26.8609 15.4665 27.5815 14.6492 28.1328 13.769C28.6842 12.8888 29.0856 11.936 29.3371 10.9107C29.5885 9.86607 29.7143 8.70536 29.7143 7.42857V3.71429C29.7143 3.52083 29.6611 3.34673 29.5547 3.19197C29.4483 3.0372 29.3177 2.9308 29.1629 2.87277ZM27.8571 7.42857C27.8571 8.49256 27.7604 9.45015 27.567 10.3013C27.3735 11.1719 27.0592 11.965 26.6239 12.6808C26.1886 13.3966 25.6131 14.064 24.8973 14.683C24.2009 15.3214 23.3304 15.9501 22.2857 16.5692C21.2411 15.9501 20.3705 15.3214 19.6741 14.683C18.9583 14.064 18.3828 13.3917 17.9475 12.6663C17.5123 11.9408 17.1979 11.1525 17.0045 10.3013C16.811 9.45015 16.7143 8.49256 16.7143 7.42857V4.32366L22.2857 1.9442L27.8571 4.32366V7.42857ZM27.8571 17.6429V24.1429H1.85714V13H12.0714C12.3229 13 12.5406 12.9081 12.7243 12.7243C12.9081 12.5406 13 12.3229 13 12.0714C13 11.8199 12.9081 11.6023 12.7243 11.4185C12.5406 11.2347 12.3229 11.1429 12.0714 11.1429H1.85714V7.42857H12.0714C12.3229 7.42857 12.5406 7.33668 12.7243 7.1529C12.9081 6.96912 13 6.75149 13 6.5C13 6.24851 12.9081 6.03088 12.7243 5.8471C12.5406 5.66332 12.3229 5.57143 12.0714 5.57143H1.85714C1.35417 5.57143 0.918899 5.75037 0.551339 6.10826C0.18378 6.46615 0 6.90625 0 7.42857V24.1429C0 24.6458 0.18378 25.0811 0.551339 25.4487C0.918899 25.8162 1.35417 26 1.85714 26H27.8571C28.3601 26 28.7954 25.8162 29.1629 25.4487C29.5305 25.0811 29.7143 24.6458 29.7143 24.1429V17.6429C29.7143 17.3914 29.6224 17.1737 29.4386 16.99C29.2548 16.8062 29.0372 16.7143 28.7857 16.7143C28.5342 16.7143 28.3166 16.8062 28.1328 16.99C27.949 17.1737 27.8571 17.3914 27.8571 17.6429ZM4.64286 16.7143C4.39137 16.7143 4.17374 16.8062 3.98996 16.99C3.80618 17.1737 3.71429 17.3914 3.71429 17.6429C3.71429 17.8943 3.80618 18.112 3.98996 18.2958C4.17374 18.4795 4.39137 18.5714 4.64286 18.5714H8.35714C8.60863 18.5714 8.82626 18.4795 9.01004 18.2958C9.19382 18.112 9.28571 17.8943 9.28571 17.6429C9.28571 17.3914 9.19382 17.1737 9.01004 16.99C8.82626 16.8062 8.60863 16.7143 8.35714 16.7143H4.64286ZM24.346 5.91964L21.4152 9.57589L20.2835 7.83482C20.1287 7.62202 19.9256 7.49144 19.6741 7.44308C19.4226 7.39472 19.1905 7.43824 18.9777 7.57366C18.7649 7.72842 18.6343 7.93155 18.5859 8.18304C18.5376 8.43452 18.5811 8.66667 18.7165 8.87947L20.5737 11.6652C20.6704 11.7812 20.7816 11.878 20.9074 11.9554C21.0331 12.0327 21.1734 12.0714 21.3281 12.0714H21.3571C21.4926 12.0714 21.6231 12.0424 21.7489 11.9844C21.8746 11.9263 21.9859 11.8393 22.0826 11.7232L25.7969 7.08036C25.9516 6.88691 26.0145 6.6596 25.9855 6.39844C25.9565 6.13728 25.8452 5.92932 25.6518 5.77455C25.4583 5.61979 25.231 5.55692 24.9699 5.58594C24.7087 5.61496 24.5007 5.72619 24.346 5.91964Z" fill="#F0B419"/>
</svg>
