<svg width="27" height="25" viewBox="0 0 27 25" fill="none" xmlns="http://www.w3.org/2000/svg">
<path d="M5.83333 16.25H3.5V24.9167H8.75V13.9858C6.41667 16.1308 6.44583 16.25 5.83333 16.25Z" fill="#F0B419"/>
<path d="M12.0108 15.9304L9.91666 13.9858V24.9167H23.3333V16.25C12.04 16.25 12.4775 16.3746 12.0108 15.9304Z" fill="#F0B419"/>
<path d="M0 15.1667H5.83333L9.33333 11.9167H3.5L0 15.1667Z" fill="#F0B419"/>
<path d="M26.8333 15.1667L23.3333 11.9167H9.33334L12.8333 15.1667H26.8333Z" fill="#F0B419"/>
<path d="M13.4167 2.16666L12.25 4.72332C13.0121 4.8263 13.7862 4.8263 14.5483 4.72332L13.4167 2.16666Z" fill="#F0B419"/>
<path d="M11.8183 5.73624L10.7275 8.16832C12.4689 8.73221 14.3645 8.73221 16.1058 8.16832C14.875 5.42749 15.0967 5.77957 14.8983 5.80124C13.8764 5.95886 12.8316 5.93681 11.8183 5.73624Z" fill="#F0B419"/>
<path d="M10.5 10.8334H16.3333V9.24628C14.4419 9.84227 12.3915 9.84227 10.5 9.24628V10.8334Z" fill="#F0B419"/>
<path d="M6.83667 1.625H9.39167C8.45197 2.16812 7.6517 2.89568 7.04705 3.75657C6.44241 4.61747 6.04805 5.59084 5.89167 6.60833C5.66009 6.71105 5.47145 6.8818 5.35496 7.09414C5.23847 7.30649 5.20063 7.54857 5.24731 7.78291C5.29398 8.01724 5.42257 8.23074 5.61314 8.39035C5.80372 8.54995 6.04566 8.64676 6.30148 8.66576C6.5573 8.68476 6.81273 8.62491 7.02821 8.49547C7.24369 8.36603 7.4072 8.17422 7.4934 7.94976C7.5796 7.7253 7.58369 7.4807 7.50504 7.25386C7.42639 7.02702 7.26938 6.83059 7.05833 6.695C7.30085 5.29702 8.07161 4.02494 9.23247 3.10675C10.3933 2.18855 11.8684 1.68426 13.3933 1.68426C14.9183 1.68426 16.3933 2.18855 17.5542 3.10675C18.7151 4.02494 19.4858 5.29702 19.7283 6.695C19.5173 6.83059 19.3603 7.02702 19.2816 7.25386C19.203 7.4807 19.2071 7.7253 19.2933 7.94976C19.3795 8.17422 19.543 8.36603 19.7585 8.49547C19.9739 8.62491 20.2294 8.68476 20.4852 8.66576C20.741 8.64676 20.9829 8.54995 21.1735 8.39035C21.3641 8.23074 21.4927 8.01724 21.5394 7.78291C21.586 7.54857 21.5482 7.30649 21.4317 7.09414C21.3152 6.8818 21.1266 6.71105 20.895 6.60833C20.7386 5.59084 20.3443 4.61747 19.7396 3.75657C19.135 2.89568 18.3347 2.16812 17.395 1.625H19.95C20.0784 1.83153 20.2766 1.99294 20.5139 2.0842C20.7512 2.17547 21.0142 2.19148 21.2623 2.12975C21.5104 2.06803 21.7296 1.93202 21.8859 1.74283C22.0423 1.55363 22.127 1.32181 22.127 1.08333C22.127 0.844855 22.0423 0.61304 21.8859 0.423842C21.7296 0.234644 21.5104 0.0986369 21.2623 0.0369141C21.0142 -0.0248088 20.7512 -0.00879763 20.5139 0.0824642C20.2766 0.173726 20.0784 0.335138 19.95 0.541667H6.83667C6.70826 0.335138 6.51004 0.173726 6.27277 0.0824642C6.03549 -0.00879763 5.77242 -0.0248088 5.52435 0.0369141C5.27628 0.0986369 5.05707 0.234644 4.90072 0.423842C4.74438 0.61304 4.65964 0.844855 4.65964 1.08333C4.65964 1.32181 4.74438 1.55363 4.90072 1.74283C5.05707 1.93202 5.27628 2.06803 5.52435 2.12975C5.77242 2.19148 6.03549 2.17547 6.27277 2.0842C6.51004 1.99294 6.70826 1.83153 6.83667 1.625Z" fill="#F0B419"/>
</svg>
