<svg width="26" height="26" viewBox="0 0 26 26" fill="none" xmlns="http://www.w3.org/2000/svg">
<path d="M17.0691 15.4309C17.0691 15.5014 17.0647 15.5718 17.0559 15.6423C17.0471 15.7127 17.0427 15.7744 17.0427 15.8272L21.2703 20.7683C21.7635 20.2575 22.1951 19.7114 22.565 19.1301C22.9526 18.5312 23.2785 17.9058 23.5427 17.2541C23.8069 16.6023 24.0095 15.9153 24.1504 15.1931C24.2913 14.4885 24.3618 13.7575 24.3618 13C24.3618 11.4323 24.0623 9.96138 23.4634 8.5874C22.8645 7.1958 22.0542 5.98916 21.0325 4.96748C20.0108 3.9458 18.8042 3.1355 17.4126 2.53658C16.0386 1.93767 14.5677 1.63821 13 1.63821C11.8022 1.63821 10.6572 1.81437 9.56504 2.16667C8.4729 2.51897 7.46883 3.0122 6.55285 3.64634L10.252 7.95325C10.5163 7.75949 10.8157 7.60535 11.1504 7.49085C11.4851 7.37636 11.8286 7.31911 12.1809 7.31911V5.70732C12.1809 5.47832 12.2602 5.28455 12.4187 5.12602C12.5772 4.96748 12.771 4.88821 13 4.88821C13.229 4.88821 13.4228 4.96748 13.5813 5.12602C13.7398 5.28455 13.8191 5.47832 13.8191 5.70732V7.31911C14.7175 7.31911 15.4837 7.63618 16.1179 8.27033C16.752 8.90447 17.0691 9.67073 17.0691 10.5691C17.0691 10.7981 16.9898 10.9919 16.8313 11.1504C16.6728 11.3089 16.479 11.3882 16.25 11.3882C16.021 11.3882 15.8272 11.3089 15.6687 11.1504C15.5102 10.9919 15.4309 10.7981 15.4309 10.5691C15.4309 10.1111 15.2724 9.72358 14.9553 9.40651C14.6382 9.08943 14.2595 8.93089 13.8191 8.93089H12.1809C12.0224 8.93089 11.8682 8.95292 11.7185 8.99695C11.5688 9.04099 11.4322 9.10705 11.3089 9.19512L14.1098 12.4451L15.2195 12.7094C15.7656 12.8503 16.2104 13.1409 16.5539 13.5813C16.8974 14.0217 17.0691 14.5237 17.0691 15.0874V15.4309ZM16.3821 17.4126C16.1003 17.8001 15.7348 18.1084 15.2856 18.3374C14.8364 18.5664 14.3476 18.6809 13.8191 18.6809V20.2927C13.8191 20.5217 13.7398 20.7154 13.5813 20.874C13.4228 21.0325 13.229 21.1118 13 21.1118C12.771 21.1118 12.5772 21.0325 12.4187 20.874C12.2602 20.7154 12.1809 20.5217 12.1809 20.2927V18.6809C11.2825 18.6809 10.5163 18.3638 9.88211 17.7297C9.24797 17.0955 8.93089 16.3293 8.93089 15.4309C8.93089 15.2019 9.01016 15.0081 9.1687 14.8496C9.32724 14.6911 9.521 14.6118 9.75 14.6118C9.979 14.6118 10.1728 14.6911 10.3313 14.8496C10.4898 15.0081 10.5691 15.2019 10.5691 15.4309C10.5691 15.8889 10.7276 16.2764 11.0447 16.5935C11.3618 16.9106 11.7405 17.0691 12.1809 17.0691H13.8191C14.1362 17.0691 14.4224 16.9854 14.6778 16.8181C14.9333 16.6507 15.1314 16.4262 15.2724 16.1443L13.2378 13.8984L10.7805 13.2907C10.2344 13.1497 9.78963 12.8591 9.44614 12.4187C9.10264 11.9783 8.93089 11.4763 8.93089 10.9126V10.5691C8.93089 10.3577 8.95291 10.1551 8.99695 9.96138C9.04099 9.76762 9.09824 9.57385 9.1687 9.38008L5.07317 4.86179C4.54472 5.37263 4.06911 5.93632 3.64634 6.55285C3.22358 7.16938 2.86247 7.82114 2.56301 8.50813C2.26355 9.19512 2.03455 9.91735 1.87602 10.6748C1.71748 11.4323 1.63821 12.2073 1.63821 13C1.63821 14.5678 1.93767 16.0386 2.53659 17.4126C3.1355 18.8042 3.9458 20.0108 4.96748 21.0325C5.98916 22.0542 7.1958 22.8645 8.5874 23.4634C9.96138 24.0623 11.4322 24.3618 13 24.3618C14.3916 24.3618 15.7083 24.1284 16.9502 23.6616C18.1921 23.1948 19.3062 22.5474 20.2927 21.7195L16.3821 17.4126ZM10.5691 10.939L11.2825 11.7317L11.1768 11.7053C11.0007 11.6701 10.8554 11.582 10.7409 11.4411C10.6264 11.3001 10.5691 11.1328 10.5691 10.939ZM13 0C14.7967 0 16.479 0.343498 18.0467 1.03049C19.6321 1.71748 21.0105 2.64668 22.1819 3.81809C23.3533 4.9895 24.2825 6.36789 24.9695 7.95325C25.6565 9.521 26 11.2033 26 13C26 14.7967 25.6565 16.479 24.9695 18.0467C24.2825 19.6321 23.3533 21.0105 22.1819 22.1819C21.0105 23.3533 19.6321 24.2825 18.0467 24.9695C16.479 25.6565 14.7967 26 13 26C11.2033 26 9.521 25.6565 7.95325 24.9695C6.36789 24.2825 4.9895 23.3533 3.81809 22.1819C2.64668 21.0105 1.71748 19.6321 1.03049 18.0467C0.343496 16.479 0 14.7967 0 13C0 11.2033 0.343496 9.521 1.03049 7.95325C1.71748 6.36789 2.64668 4.9895 3.81809 3.81809C4.9895 2.64668 6.36789 1.71748 7.95325 1.03049C9.521 0.343498 11.2033 0 13 0ZM17.0691 15.4309C17.0691 15.5014 17.0647 15.5718 17.0559 15.6423C17.0471 15.7127 17.0427 15.7744 17.0427 15.8272L21.2703 20.7683C21.7635 20.2575 22.1951 19.7114 22.565 19.1301C22.9526 18.5312 23.2785 17.9058 23.5427 17.2541C23.8069 16.6023 24.0095 15.9153 24.1504 15.1931C24.2913 14.4885 24.3618 13.7575 24.3618 13C24.3618 11.4323 24.0623 9.96138 23.4634 8.5874C22.8645 7.1958 22.0542 5.98916 21.0325 4.96748C20.0108 3.9458 18.8042 3.1355 17.4126 2.53658C16.0386 1.93767 14.5677 1.63821 13 1.63821C11.8022 1.63821 10.6572 1.81437 9.56504 2.16667C8.4729 2.51897 7.46883 3.0122 6.55285 3.64634L10.252 7.95325C10.5163 7.75949 10.8157 7.60535 11.1504 7.49085C11.4851 7.37636 11.8286 7.31911 12.1809 7.31911V5.70732C12.1809 5.47832 12.2602 5.28455 12.4187 5.12602C12.5772 4.96748 12.771 4.88821 13 4.88821C13.229 4.88821 13.4228 4.96748 13.5813 5.12602C13.7398 5.28455 13.8191 5.47832 13.8191 5.70732V7.31911C14.7175 7.31911 15.4837 7.63618 16.1179 8.27033C16.752 8.90447 17.0691 9.67073 17.0691 10.5691C17.0691 10.7981 16.9898 10.9919 16.8313 11.1504C16.6728 11.3089 16.479 11.3882 16.25 11.3882C16.021 11.3882 15.8272 11.3089 15.6687 11.1504C15.5102 10.9919 15.4309 10.7981 15.4309 10.5691C15.4309 10.1111 15.2724 9.72358 14.9553 9.40651C14.6382 9.08943 14.2595 8.93089 13.8191 8.93089H12.1809C12.0224 8.93089 11.8682 8.95292 11.7185 8.99695C11.5688 9.04099 11.4322 9.10705 11.3089 9.19512L14.1098 12.4451L15.2195 12.7094C15.7656 12.8503 16.2104 13.1409 16.5539 13.5813C16.8974 14.0217 17.0691 14.5237 17.0691 15.0874V15.4309ZM16.3821 17.4126C16.1003 17.8001 15.7348 18.1084 15.2856 18.3374C14.8364 18.5664 14.3476 18.6809 13.8191 18.6809V20.2927C13.8191 20.5217 13.7398 20.7154 13.5813 20.874C13.4228 21.0325 13.229 21.1118 13 21.1118C12.771 21.1118 12.5772 21.0325 12.4187 20.874C12.2602 20.7154 12.1809 20.5217 12.1809 20.2927V18.6809C11.2825 18.6809 10.5163 18.3638 9.88211 17.7297C9.24797 17.0955 8.93089 16.3293 8.93089 15.4309C8.93089 15.2019 9.01016 15.0081 9.1687 14.8496C9.32724 14.6911 9.521 14.6118 9.75 14.6118C9.979 14.6118 10.1728 14.6911 10.3313 14.8496C10.4898 15.0081 10.5691 15.2019 10.5691 15.4309C10.5691 15.8889 10.7276 16.2764 11.0447 16.5935C11.3618 16.9106 11.7405 17.0691 12.1809 17.0691H13.8191C14.1362 17.0691 14.4224 16.9854 14.6778 16.8181C14.9333 16.6507 15.1314 16.4262 15.2724 16.1443L13.2378 13.8984L10.7805 13.2907C10.2344 13.1497 9.78963 12.8591 9.44614 12.4187C9.10264 11.9783 8.93089 11.4763 8.93089 10.9126V10.5691C8.93089 10.3577 8.95291 10.1551 8.99695 9.96138C9.04099 9.76762 9.09824 9.57385 9.1687 9.38008L5.07317 4.86179C4.54472 5.37263 4.06911 5.93632 3.64634 6.55285C3.22358 7.16938 2.86247 7.82114 2.56301 8.50813C2.26355 9.19512 2.03455 9.91735 1.87602 10.6748C1.71748 11.4323 1.63821 12.2073 1.63821 13C1.63821 14.5678 1.93767 16.0386 2.53659 17.4126C3.1355 18.8042 3.9458 20.0108 4.96748 21.0325C5.98916 22.0542 7.1958 22.8645 8.5874 23.4634C9.96138 24.0623 11.4322 24.3618 13 24.3618C14.3916 24.3618 15.7083 24.1284 16.9502 23.6616C18.1921 23.1948 19.3062 22.5474 20.2927 21.7195L16.3821 17.4126ZM10.5691 10.939L11.2825 11.7317L11.1768 11.7053C11.0007 11.6701 10.8554 11.582 10.7409 11.4411C10.6264 11.3001 10.5691 11.1328 10.5691 10.939ZM13 0C14.7967 0 16.479 0.343498 18.0467 1.03049C19.6321 1.71748 21.0105 2.64668 22.1819 3.81809C23.3533 4.9895 24.2825 6.36789 24.9695 7.95325C25.6565 9.521 26 11.2033 26 13C26 14.7967 25.6565 16.479 24.9695 18.0467C24.2825 19.6321 23.3533 21.0105 22.1819 22.1819C21.0105 23.3533 19.6321 24.2825 18.0467 24.9695C16.479 25.6565 14.7967 26 13 26C11.2033 26 9.521 25.6565 7.95325 24.9695C6.36789 24.2825 4.9895 23.3533 3.81809 22.1819C2.64668 21.0105 1.71748 19.6321 1.03049 18.0467C0.343496 16.479 0 14.7967 0 13C0 11.2033 0.343496 9.521 1.03049 7.95325C1.71748 6.36789 2.64668 4.9895 3.81809 3.81809C4.9895 2.64668 6.36789 1.71748 7.95325 1.03049C9.521 0.343498 11.2033 0 13 0Z" fill="#F0B419"/>
</svg>
