<svg width="26" height="26" viewBox="0 0 26 26" fill="none" xmlns="http://www.w3.org/2000/svg">
<path d="M24.3618 14.1098V8.93089C24.3618 8.86043 24.353 8.78997 24.3354 8.71951C24.3178 8.64905 24.2913 8.5874 24.2561 8.53455L19.8435 1.18902C19.6321 0.83672 19.3371 0.550474 18.9583 0.330284C18.5796 0.110094 18.1789 0 17.7561 0H6.60569C6.18293 0 5.78659 0.110094 5.41667 0.330284C5.04675 0.550474 4.74729 0.83672 4.51829 1.18902L0.132114 8.53455C0.0968835 8.5874 0.0660569 8.64905 0.0396341 8.71951C0.0132114 8.78997 0 8.86043 0 8.93089V21.9309C0 22.6003 0.242209 23.1728 0.726626 23.6484C1.21104 24.124 1.78794 24.3618 2.45732 24.3618H14.1098C14.7263 24.8726 15.4265 25.2734 16.2104 25.564C16.9942 25.8547 17.8178 26 18.6809 26C19.685 26 20.6362 25.8062 21.5346 25.4187C22.4153 25.0312 23.186 24.5071 23.8465 23.8465C24.5071 23.186 25.0312 22.4153 25.4187 21.5346C25.8062 20.6362 26 19.685 26 18.6809C26 17.8177 25.8547 16.9942 25.564 16.2104C25.2734 15.4265 24.8726 14.7263 24.3618 14.1098ZM13 1.63821H17.7561C17.897 1.63821 18.0291 1.67344 18.1524 1.7439C18.2757 1.81436 18.3814 1.91125 18.4695 2.03455L22.1159 8.13821H13V1.63821ZM5.9187 2.03455C5.98916 1.91125 6.08604 1.81436 6.20935 1.7439C6.33266 1.67344 6.46477 1.63821 6.60569 1.63821H11.3882V8.13821H2.24593L5.9187 2.03455ZM1.63821 21.9309V9.75H22.75V12.6037C22.1687 12.2161 21.5346 11.9167 20.8476 11.7053C20.1606 11.4939 19.4383 11.3882 18.6809 11.3882C17.6768 11.3882 16.7344 11.5732 15.8537 11.9431C14.9553 12.3306 14.1758 12.8547 13.5152 13.5152C12.8547 14.1758 12.3306 14.9553 11.9431 15.8537C11.5732 16.7344 11.3882 17.6768 11.3882 18.6809C11.3882 19.4383 11.4939 20.1606 11.7053 20.8476C11.9167 21.5346 12.2161 22.1687 12.6037 22.75H2.45732C2.22832 22.75 2.03455 22.6707 1.87602 22.5122C1.71748 22.3537 1.63821 22.1599 1.63821 21.9309ZM18.6809 24.3618C17.9058 24.3618 17.166 24.2121 16.4614 23.9126C15.7744 23.6131 15.1755 23.208 14.6646 22.6972C14.1538 22.1863 13.7486 21.5874 13.4492 20.9004C13.1497 20.1958 13 19.456 13 18.6809C13 17.9058 13.1497 17.166 13.4492 16.4614C13.7486 15.7744 14.1538 15.1755 14.6646 14.6646C15.1755 14.1538 15.7744 13.7486 16.4614 13.4492C17.166 13.1497 17.9058 13 18.6809 13C19.456 13 20.1958 13.1497 20.9004 13.4492C21.5874 13.7486 22.1863 14.1538 22.6972 14.6646C23.208 15.1755 23.6131 15.7744 23.9126 16.4614C24.2121 17.166 24.3618 17.9058 24.3618 18.6809C24.3618 19.456 24.2121 20.1958 23.9126 20.9004C23.6131 21.5874 23.208 22.1863 22.6972 22.6972C22.1863 23.208 21.5874 23.6131 20.9004 23.9126C20.1958 24.2121 19.456 24.3618 18.6809 24.3618ZM17.8618 21.9309C17.7561 21.9309 17.6548 21.9089 17.5579 21.8648C17.461 21.8208 17.3774 21.7635 17.3069 21.6931L14.8496 19.2622C14.6911 19.1037 14.6118 18.9099 14.6118 18.6809C14.6118 18.4519 14.6911 18.2581 14.8496 18.0996C15.0081 17.9411 15.2019 17.8618 15.4309 17.8618C15.6599 17.8618 15.8537 17.9411 16.0122 18.0996L17.8618 19.9756L21.3496 16.4878C21.5081 16.3293 21.7019 16.25 21.9309 16.25C22.1599 16.25 22.3537 16.3293 22.5122 16.4878C22.6707 16.6463 22.75 16.8357 22.75 17.0559C22.75 17.2761 22.6707 17.4654 22.5122 17.624L18.4431 21.6931C18.3726 21.7635 18.2846 21.8208 18.1789 21.8648C18.0732 21.9089 17.9675 21.9309 17.8618 21.9309ZM8.13821 13.8191H4.88821C4.65921 13.8191 4.46545 13.7398 4.30691 13.5813C4.14837 13.4228 4.06911 13.229 4.06911 13C4.06911 12.771 4.14837 12.5772 4.30691 12.4187C4.46545 12.2602 4.65921 12.1809 4.88821 12.1809H8.13821C8.34959 12.1809 8.53455 12.2602 8.69309 12.4187C8.85163 12.5772 8.93089 12.771 8.93089 13C8.93089 13.229 8.85163 13.4228 8.69309 13.5813C8.53455 13.7398 8.34959 13.8191 8.13821 13.8191ZM24.3618 14.1098V8.93089C24.3618 8.86043 24.353 8.78997 24.3354 8.71951C24.3178 8.64905 24.2913 8.5874 24.2561 8.53455L19.8435 1.18902C19.6321 0.83672 19.3371 0.550474 18.9583 0.330284C18.5796 0.110094 18.1789 0 17.7561 0H6.60569C6.18293 0 5.78659 0.110094 5.41667 0.330284C5.04675 0.550474 4.74729 0.83672 4.51829 1.18902L0.132114 8.53455C0.0968835 8.5874 0.0660569 8.64905 0.0396341 8.71951C0.0132114 8.78997 0 8.86043 0 8.93089V21.9309C0 22.6003 0.242209 23.1728 0.726626 23.6484C1.21104 24.124 1.78794 24.3618 2.45732 24.3618H14.1098C14.7263 24.8726 15.4265 25.2734 16.2104 25.564C16.9942 25.8547 17.8178 26 18.6809 26C19.685 26 20.6362 25.8062 21.5346 25.4187C22.4153 25.0312 23.186 24.5071 23.8465 23.8465C24.5071 23.186 25.0312 22.4153 25.4187 21.5346C25.8062 20.6362 26 19.685 26 18.6809C26 17.8177 25.8547 16.9942 25.564 16.2104C25.2734 15.4265 24.8726 14.7263 24.3618 14.1098ZM13 1.63821H17.7561C17.897 1.63821 18.0291 1.67344 18.1524 1.7439C18.2757 1.81436 18.3814 1.91125 18.4695 2.03455L22.1159 8.13821H13V1.63821ZM5.9187 2.03455C5.98916 1.91125 6.08604 1.81436 6.20935 1.7439C6.33266 1.67344 6.46477 1.63821 6.60569 1.63821H11.3882V8.13821H2.24593L5.9187 2.03455ZM1.63821 21.9309V9.75H22.75V12.6037C22.1687 12.2161 21.5346 11.9167 20.8476 11.7053C20.1606 11.4939 19.4383 11.3882 18.6809 11.3882C17.6768 11.3882 16.7344 11.5732 15.8537 11.9431C14.9553 12.3306 14.1758 12.8547 13.5152 13.5152C12.8547 14.1758 12.3306 14.9553 11.9431 15.8537C11.5732 16.7344 11.3882 17.6768 11.3882 18.6809C11.3882 19.4383 11.4939 20.1606 11.7053 20.8476C11.9167 21.5346 12.2161 22.1687 12.6037 22.75H2.45732C2.22832 22.75 2.03455 22.6707 1.87602 22.5122C1.71748 22.3537 1.63821 22.1599 1.63821 21.9309ZM18.6809 24.3618C17.9058 24.3618 17.166 24.2121 16.4614 23.9126C15.7744 23.6131 15.1755 23.208 14.6646 22.6972C14.1538 22.1863 13.7486 21.5874 13.4492 20.9004C13.1497 20.1958 13 19.456 13 18.6809C13 17.9058 13.1497 17.166 13.4492 16.4614C13.7486 15.7744 14.1538 15.1755 14.6646 14.6646C15.1755 14.1538 15.7744 13.7486 16.4614 13.4492C17.166 13.1497 17.9058 13 18.6809 13C19.456 13 20.1958 13.1497 20.9004 13.4492C21.5874 13.7486 22.1863 14.1538 22.6972 14.6646C23.208 15.1755 23.6131 15.7744 23.9126 16.4614C24.2121 17.166 24.3618 17.9058 24.3618 18.6809C24.3618 19.456 24.2121 20.1958 23.9126 20.9004C23.6131 21.5874 23.208 22.1863 22.6972 22.6972C22.1863 23.208 21.5874 23.6131 20.9004 23.9126C20.1958 24.2121 19.456 24.3618 18.6809 24.3618ZM17.8618 21.9309C17.7561 21.9309 17.6548 21.9089 17.5579 21.8648C17.461 21.8208 17.3774 21.7635 17.3069 21.6931L14.8496 19.2622C14.6911 19.1037 14.6118 18.9099 14.6118 18.6809C14.6118 18.4519 14.6911 18.2581 14.8496 18.0996C15.0081 17.9411 15.2019 17.8618 15.4309 17.8618C15.6599 17.8618 15.8537 17.9411 16.0122 18.0996L17.8618 19.9756L21.3496 16.4878C21.5081 16.3293 21.7019 16.25 21.9309 16.25C22.1599 16.25 22.3537 16.3293 22.5122 16.4878C22.6707 16.6463 22.75 16.8357 22.75 17.0559C22.75 17.2761 22.6707 17.4654 22.5122 17.624L18.4431 21.6931C18.3726 21.7635 18.2846 21.8208 18.1789 21.8648C18.0732 21.9089 17.9675 21.9309 17.8618 21.9309ZM8.13821 13.8191H4.88821C4.65921 13.8191 4.46545 13.7398 4.30691 13.5813C4.14837 13.4228 4.06911 13.229 4.06911 13C4.06911 12.771 4.14837 12.5772 4.30691 12.4187C4.46545 12.2602 4.65921 12.1809 4.88821 12.1809H8.13821C8.34959 12.1809 8.53455 12.2602 8.69309 12.4187C8.85163 12.5772 8.93089 12.771 8.93089 13C8.93089 13.229 8.85163 13.4228 8.69309 13.5813C8.53455 13.7398 8.34959 13.8191 8.13821 13.8191ZM23.8862 14.2683V8.93089C23.8862 8.91328 23.8818 8.88686 23.873 8.85163C23.8642 8.81639 23.851 8.78997 23.8333 8.77236L19.4472 1.45325C19.271 1.15379 19.0332 0.920393 18.7337 0.753048C18.4343 0.585703 18.1084 0.502031 17.7561 0.502031H6.60569C6.271 0.502031 5.95393 0.585703 5.65447 0.753048C5.35501 0.920393 5.11721 1.15379 4.94106 1.45325L0.554878 8.77236C0.537263 8.78997 0.524051 8.81639 0.515244 8.85163C0.506436 8.88686 0.502033 8.91328 0.502033 8.93089V21.9309C0.502033 22.4593 0.691396 22.9173 1.07012 23.3049C1.44885 23.6924 1.91125 23.8862 2.45732 23.8862H14.2683L14.4004 23.9919C14.9817 24.4675 15.6379 24.8374 16.3689 25.1016C17.0999 25.3659 17.8706 25.498 18.6809 25.498C19.6145 25.498 20.4953 25.3218 21.3232 24.9695C22.1511 24.6172 22.8777 24.1284 23.503 23.503C24.1284 22.8777 24.6172 22.1511 24.9695 21.3232C25.3218 20.4953 25.498 19.6145 25.498 18.6809C25.498 17.8706 25.3659 17.0999 25.1016 16.3689C24.8374 15.6379 24.4675 14.9817 23.9919 14.4004L23.8862 14.2683ZM19.8435 1.18902L24.2561 8.53455C24.2913 8.5874 24.3178 8.64905 24.3354 8.71951C24.353 8.78997 24.3618 8.86043 24.3618 8.93089V14.1098C24.8726 14.7263 25.2734 15.4265 25.564 16.2104C25.8547 16.9942 26 17.8177 26 18.6809C26 19.685 25.8062 20.6362 25.4187 21.5346C25.0312 22.4153 24.5071 23.186 23.8465 23.8465C23.186 24.5071 22.4153 25.0312 21.5346 25.4187C20.6362 25.8062 19.685 26 18.6809 26C17.8178 26 16.9942 25.8547 16.2104 25.564C15.4265 25.2734 14.7263 24.8726 14.1098 24.3618H2.45732C1.78794 24.3618 1.21104 24.124 0.726626 23.6484C0.242209 23.1728 0 22.6003 0 21.9309V8.93089C0 8.86043 0.0132114 8.78997 0.0396341 8.71951C0.0660569 8.64905 0.0968835 8.5874 0.132114 8.53455L4.51829 1.18902C4.74729 0.83672 5.04675 0.550474 5.41667 0.330284C5.78659 0.110094 6.18293 0 6.60569 0H17.7561C18.1789 0 18.5796 0.110094 18.9583 0.330284C19.3371 0.550474 19.6321 0.83672 19.8435 1.18902ZM12.5244 1.1626V8.61382H22.9614L18.8659 1.77032C18.7602 1.57656 18.606 1.42683 18.4035 1.32114C18.2009 1.21545 17.9851 1.1626 17.7561 1.1626H12.5244ZM5.9187 2.03455C5.98916 1.91125 6.08604 1.81436 6.20935 1.7439C6.33266 1.67344 6.46477 1.63821 6.60569 1.63821H11.3882V8.13821H2.24593L5.9187 2.03455ZM5.49593 1.77032L1.40041 8.61382H11.8638V1.1626H6.60569C6.37669 1.1626 6.16531 1.21545 5.97154 1.32114C5.77778 1.42683 5.61924 1.57656 5.49593 1.77032ZM1.1626 9.27439V21.9309C1.1626 22.2832 1.28591 22.5871 1.53252 22.8425C1.77913 23.0979 2.0874 23.2256 2.45732 23.2256H13.5285L13 22.4593C12.6477 21.9309 12.3703 21.3452 12.1677 20.7022C11.9651 20.0593 11.8638 19.3855 11.8638 18.6809C11.8638 17.7473 12.04 16.8665 12.3923 16.0386C12.7446 15.2107 13.2334 14.4841 13.8587 13.8587C14.4841 13.2334 15.2107 12.7446 16.0386 12.3923C16.8665 12.04 17.7473 11.8638 18.6809 11.8638C19.3855 11.8638 20.0593 11.9651 20.7022 12.1677C21.3452 12.3703 21.9309 12.6477 22.4594 13L23.2256 13.5285V9.27439H1.1626ZM17.8618 20.6626L15.6687 18.4431C15.5982 18.3902 15.519 18.3638 15.4309 18.3638C15.3428 18.3638 15.2636 18.3902 15.1931 18.4431C15.1402 18.5135 15.1138 18.5928 15.1138 18.6809C15.1138 18.769 15.1402 18.8482 15.1931 18.9187L17.6504 21.3496C17.668 21.3848 17.6988 21.4112 17.7429 21.4289C17.7869 21.4465 17.8266 21.4553 17.8618 21.4553C17.9146 21.4553 17.9587 21.4465 17.9939 21.4289C18.0291 21.4112 18.0644 21.3848 18.0996 21.3496L22.1687 17.2805C22.2215 17.2276 22.248 17.1528 22.248 17.0559C22.248 16.959 22.2215 16.8841 22.1687 16.8313C22.0982 16.7608 22.019 16.7256 21.9309 16.7256C21.8428 16.7256 21.7636 16.7608 21.6931 16.8313L17.8618 20.6626ZM13 8.13821V1.63821H17.7561C17.897 1.63821 18.0291 1.67344 18.1524 1.7439C18.2757 1.81436 18.3814 1.91125 18.4695 2.03455L22.1159 8.13821H13ZM22.248 12.313C21.7195 12.0135 21.1558 11.7846 20.5569 11.626C19.958 11.4675 19.3327 11.3882 18.6809 11.3882C17.6768 11.3882 16.7344 11.5732 15.8537 11.9431C14.9553 12.3306 14.1758 12.8547 13.5152 13.5152C12.8547 14.1758 12.3306 14.9553 11.9431 15.8537C11.5732 16.7344 11.3882 17.6768 11.3882 18.6809C11.3882 19.3327 11.4675 19.958 11.626 20.5569C11.7846 21.1558 12.0136 21.7195 12.313 22.248C12.3659 22.336 12.4143 22.4197 12.4583 22.499C12.5024 22.5783 12.5508 22.6619 12.6037 22.75H2.45732C2.22832 22.75 2.03455 22.6707 1.87602 22.5122C1.71748 22.3537 1.63821 22.1599 1.63821 21.9309V9.75H22.75V12.6037C22.6619 12.5508 22.5783 12.5024 22.499 12.4583C22.4197 12.4143 22.336 12.3659 22.248 12.313ZM18.6809 24.8374C17.8354 24.8374 17.0339 24.6789 16.2764 24.3618C15.5366 24.0447 14.8848 23.6043 14.3211 23.0407C13.7575 22.477 13.3171 21.8252 13 21.0854C12.6829 20.3279 12.5244 19.5264 12.5244 18.6809C12.5244 17.8354 12.6829 17.0339 13 16.2764C13.3171 15.5366 13.7575 14.8848 14.3211 14.3211C14.8848 13.7575 15.5366 13.3171 16.2764 13C17.0339 12.6829 17.8354 12.5244 18.6809 12.5244C19.5264 12.5244 20.3279 12.6829 21.0854 13C21.8252 13.3171 22.477 13.7575 23.0407 14.3211C23.6043 14.8848 24.0447 15.5366 24.3618 16.2764C24.6789 17.0339 24.8374 17.8354 24.8374 18.6809C24.8374 19.5264 24.6789 20.3279 24.3618 21.0854C24.0447 21.8252 23.6043 22.477 23.0407 23.0407C22.477 23.6043 21.8252 24.0447 21.0854 24.3618C20.3279 24.6789 19.5264 24.8374 18.6809 24.8374ZM17.8618 19.9756L21.3496 16.4878C21.5081 16.3293 21.7019 16.25 21.9309 16.25C22.1599 16.25 22.3537 16.3293 22.5122 16.4878C22.6707 16.6463 22.75 16.8357 22.75 17.0559C22.75 17.2761 22.6707 17.4654 22.5122 17.624L18.4431 21.6931C18.3726 21.7635 18.2846 21.8208 18.1789 21.8648C18.0732 21.9089 17.9675 21.9309 17.8618 21.9309C17.7561 21.9309 17.6548 21.9089 17.5579 21.8648C17.461 21.8208 17.3774 21.7635 17.3069 21.6931L14.8496 19.2622C14.6911 19.1037 14.6118 18.9099 14.6118 18.6809C14.6118 18.4519 14.6911 18.2581 14.8496 18.0996C15.0081 17.9411 15.2019 17.8618 15.4309 17.8618C15.6599 17.8618 15.8537 17.9411 16.0122 18.0996L17.8618 19.9756ZM4.88821 13.3171C4.80014 13.3171 4.72087 13.2862 4.65041 13.2246C4.57995 13.1629 4.54472 13.0881 4.54472 13C4.54472 12.9119 4.57995 12.8371 4.65041 12.7754C4.72087 12.7138 4.80014 12.6829 4.88821 12.6829H8.13821C8.22629 12.6829 8.30115 12.7138 8.36281 12.7754C8.42446 12.8371 8.45529 12.9119 8.45529 13C8.45529 13.0881 8.42446 13.1629 8.36281 13.2246C8.30115 13.2862 8.22629 13.3171 8.13821 13.3171H4.88821ZM13 18.6809C13 19.456 13.1497 20.1958 13.4492 20.9004C13.7486 21.5874 14.1538 22.1863 14.6646 22.6972C15.1755 23.208 15.7744 23.6131 16.4614 23.9126C17.166 24.2121 17.9058 24.3618 18.6809 24.3618C19.456 24.3618 20.1958 24.2121 20.9004 23.9126C21.5874 23.6131 22.1863 23.208 22.6972 22.6972C23.208 22.1863 23.6131 21.5874 23.9126 20.9004C24.2121 20.1958 24.3618 19.456 24.3618 18.6809C24.3618 17.9058 24.2121 17.166 23.9126 16.4614C23.6131 15.7744 23.208 15.1755 22.6972 14.6646C22.1863 14.1538 21.5874 13.7486 20.9004 13.4492C20.1958 13.1497 19.456 13 18.6809 13C17.9058 13 17.166 13.1497 16.4614 13.4492C15.7744 13.7486 15.1755 14.1538 14.6646 14.6646C14.1538 15.1755 13.7486 15.7744 13.4492 16.4614C13.1497 17.166 13 17.9058 13 18.6809ZM4.88821 13.8191H8.13821C8.34959 13.8191 8.53455 13.7398 8.69309 13.5813C8.85163 13.4228 8.93089 13.229 8.93089 13C8.93089 12.771 8.85163 12.5772 8.69309 12.4187C8.53455 12.2602 8.34959 12.1809 8.13821 12.1809H4.88821C4.65921 12.1809 4.46545 12.2602 4.30691 12.4187C4.14837 12.5772 4.06911 12.771 4.06911 13C4.06911 13.229 4.14837 13.4228 4.30691 13.5813C4.46545 13.7398 4.65921 13.8191 4.88821 13.8191Z" fill="#F0B419"/>
</svg>
