<svg width="26" height="26" viewBox="0 0 26 26" fill="none" xmlns="http://www.w3.org/2000/svg">
<path d="M24.4766 6.85547V9.26758C24.9167 9.41992 25.2806 9.69499 25.5684 10.0928C25.8561 10.4906 26 10.9349 26 11.4258V20.668C26 21.2943 25.7757 21.8317 25.3271 22.2803C24.8786 22.7288 24.3411 22.9531 23.7148 22.9531H21.4297V25.2383C21.4297 25.4414 21.3535 25.6191 21.2012 25.7715C21.0488 25.9238 20.8711 26 20.668 26H5.33203C5.12891 26 4.95117 25.9238 4.79883 25.7715C4.64648 25.6191 4.57031 25.4414 4.57031 25.2383V22.9531H2.28516C1.65885 22.9531 1.12142 22.7288 0.672852 22.2803C0.224284 21.8317 0 21.2943 0 20.668V11.4258C0 10.9349 0.14388 10.4906 0.431641 10.0928C0.719401 9.69499 1.08333 9.41992 1.52344 9.26758V6.85547C1.52344 6.22917 1.74772 5.69173 2.19629 5.24316C2.64486 4.7946 3.18229 4.57031 3.80859 4.57031H4.57031V0.761719C4.57031 0.558594 4.64648 0.380859 4.79883 0.228516C4.95117 0.0761719 5.12891 0 5.33203 0H16.0977C16.1992 0 16.2965 0.0211601 16.3896 0.0634766C16.4827 0.105795 16.5632 0.160809 16.6309 0.228516L20.9727 4.57031H22.1914C22.8177 4.57031 23.3551 4.7946 23.8037 5.24316C24.2523 5.69173 24.4766 6.22917 24.4766 6.85547ZM22.1914 6.09375H21.4297V9.14062H22.9531V6.85547C22.9531 6.65234 22.877 6.47461 22.7246 6.32227C22.5723 6.16992 22.3945 6.09375 22.1914 6.09375ZM18.8398 4.57031L16.8594 2.58984V4.57031H18.8398ZM15.3359 1.52344H6.09375V9.14062H19.9062V6.09375H16.0977C15.8945 6.09375 15.7168 6.01758 15.5645 5.86523C15.4121 5.71289 15.3359 5.53516 15.3359 5.33203V1.52344ZM3.80859 6.09375C3.60547 6.09375 3.42773 6.16992 3.27539 6.32227C3.12305 6.47461 3.04688 6.65234 3.04688 6.85547V9.14062H4.57031V6.09375H3.80859ZM6.09375 24.4766H19.9062V16.8594H6.09375V24.4766ZM23.7148 21.4297C23.918 21.4297 24.0957 21.3535 24.248 21.2012C24.4004 21.0488 24.4766 20.8711 24.4766 20.668V11.4258C24.4766 11.2227 24.4004 11.0449 24.248 10.8926C24.0957 10.7402 23.918 10.6641 23.7148 10.6641H2.28516C2.08203 10.6641 1.9043 10.7402 1.75195 10.8926C1.59961 11.0449 1.52344 11.2227 1.52344 11.4258V20.668C1.52344 20.8711 1.59961 21.0488 1.75195 21.2012C1.9043 21.3535 2.08203 21.4297 2.28516 21.4297H4.57031V16.8594H3.80859C3.60547 16.8594 3.42773 16.7832 3.27539 16.6309C3.12305 16.4785 3.04688 16.3008 3.04688 16.0977C3.04688 15.8945 3.12305 15.7168 3.27539 15.5645C3.42773 15.4121 3.60547 15.3359 3.80859 15.3359H22.1914C22.3945 15.3359 22.5723 15.4121 22.7246 15.5645C22.877 15.7168 22.9531 15.8945 22.9531 16.0977C22.9531 16.3008 22.877 16.4785 22.7246 16.6309C22.5723 16.7832 22.3945 16.8594 22.1914 16.8594H21.4297V21.4297H23.7148ZM8.37891 18.3828C8.17578 18.3828 7.99805 18.459 7.8457 18.6113C7.69336 18.7637 7.61719 18.9414 7.61719 19.1445C7.61719 19.3477 7.69336 19.5254 7.8457 19.6777C7.99805 19.8301 8.17578 19.9062 8.37891 19.9062H17.6211C17.8242 19.9062 18.002 19.8301 18.1543 19.6777C18.3066 19.5254 18.3828 19.3477 18.3828 19.1445C18.3828 18.9414 18.3066 18.7637 18.1543 18.6113C18.002 18.459 17.8242 18.3828 17.6211 18.3828H8.37891ZM17.6211 21.4297C17.8242 21.4297 18.002 21.5059 18.1543 21.6582C18.3066 21.8105 18.3828 21.9883 18.3828 22.1914C18.3828 22.3945 18.3066 22.5723 18.1543 22.7246C18.002 22.877 17.8242 22.9531 17.6211 22.9531H8.37891C8.17578 22.9531 7.99805 22.877 7.8457 22.7246C7.69336 22.5723 7.61719 22.3945 7.61719 22.1914C7.61719 21.9883 7.69336 21.8105 7.8457 21.6582C7.99805 21.5059 8.17578 21.4297 8.37891 21.4297H17.6211ZM3.04688 12.9492C3.04688 13.1523 3.12305 13.3301 3.27539 13.4824C3.42773 13.6348 3.60547 13.7109 3.80859 13.7109H5.33203C5.53516 13.7109 5.71289 13.6348 5.86523 13.4824C6.01758 13.3301 6.09375 13.1523 6.09375 12.9492C6.09375 12.7461 6.01758 12.5684 5.86523 12.416C5.71289 12.2637 5.53516 12.1875 5.33203 12.1875H3.80859C3.60547 12.1875 3.42773 12.2637 3.27539 12.416C3.12305 12.5684 3.04688 12.7461 3.04688 12.9492ZM24.4766 6.85547V9.26758C24.9167 9.41992 25.2806 9.69499 25.5684 10.0928C25.8561 10.4906 26 10.9349 26 11.4258V20.668C26 21.2943 25.7757 21.8317 25.3271 22.2803C24.8786 22.7288 24.3411 22.9531 23.7148 22.9531H21.4297V25.2383C21.4297 25.4414 21.3535 25.6191 21.2012 25.7715C21.0488 25.9238 20.8711 26 20.668 26H5.33203C5.12891 26 4.95117 25.9238 4.79883 25.7715C4.64648 25.6191 4.57031 25.4414 4.57031 25.2383V22.9531H2.28516C1.65885 22.9531 1.12142 22.7288 0.672852 22.2803C0.224284 21.8317 0 21.2943 0 20.668V11.4258C0 10.9349 0.14388 10.4906 0.431641 10.0928C0.719401 9.69499 1.08333 9.41992 1.52344 9.26758V6.85547C1.52344 6.22917 1.74772 5.69173 2.19629 5.24316C2.64486 4.7946 3.18229 4.57031 3.80859 4.57031H4.57031V0.761719C4.57031 0.558594 4.64648 0.380859 4.79883 0.228516C4.95117 0.0761719 5.12891 0 5.33203 0H16.0977C16.1992 0 16.2965 0.0211601 16.3896 0.0634766C16.4827 0.105795 16.5632 0.160809 16.6309 0.228516L20.9727 4.57031H22.1914C22.8177 4.57031 23.3551 4.7946 23.8037 5.24316C24.2523 5.69173 24.4766 6.22917 24.4766 6.85547ZM22.1914 6.09375H21.4297V9.14062H22.9531V6.85547C22.9531 6.65234 22.877 6.47461 22.7246 6.32227C22.5723 6.16992 22.3945 6.09375 22.1914 6.09375ZM18.8398 4.57031L16.8594 2.58984V4.57031H18.8398ZM15.3359 1.52344H6.09375V9.14062H19.9062V6.09375H16.0977C15.8945 6.09375 15.7168 6.01758 15.5645 5.86523C15.4121 5.71289 15.3359 5.53516 15.3359 5.33203V1.52344ZM3.80859 6.09375C3.60547 6.09375 3.42773 6.16992 3.27539 6.32227C3.12305 6.47461 3.04688 6.65234 3.04688 6.85547V9.14062H4.57031V6.09375H3.80859ZM6.09375 24.4766H19.9062V16.8594H6.09375V24.4766ZM23.7148 21.4297C23.918 21.4297 24.0957 21.3535 24.248 21.2012C24.4004 21.0488 24.4766 20.8711 24.4766 20.668V11.4258C24.4766 11.2227 24.4004 11.0449 24.248 10.8926C24.0957 10.7402 23.918 10.6641 23.7148 10.6641H2.28516C2.08203 10.6641 1.9043 10.7402 1.75195 10.8926C1.59961 11.0449 1.52344 11.2227 1.52344 11.4258V20.668C1.52344 20.8711 1.59961 21.0488 1.75195 21.2012C1.9043 21.3535 2.08203 21.4297 2.28516 21.4297H4.57031V16.8594H3.80859C3.60547 16.8594 3.42773 16.7832 3.27539 16.6309C3.12305 16.4785 3.04688 16.3008 3.04688 16.0977C3.04688 15.8945 3.12305 15.7168 3.27539 15.5645C3.42773 15.4121 3.60547 15.3359 3.80859 15.3359H22.1914C22.3945 15.3359 22.5723 15.4121 22.7246 15.5645C22.877 15.7168 22.9531 15.8945 22.9531 16.0977C22.9531 16.3008 22.877 16.4785 22.7246 16.6309C22.5723 16.7832 22.3945 16.8594 22.1914 16.8594H21.4297V21.4297H23.7148ZM8.37891 18.3828C8.17578 18.3828 7.99805 18.459 7.8457 18.6113C7.69336 18.7637 7.61719 18.9414 7.61719 19.1445C7.61719 19.3477 7.69336 19.5254 7.8457 19.6777C7.99805 19.8301 8.17578 19.9062 8.37891 19.9062H17.6211C17.8242 19.9062 18.002 19.8301 18.1543 19.6777C18.3066 19.5254 18.3828 19.3477 18.3828 19.1445C18.3828 18.9414 18.3066 18.7637 18.1543 18.6113C18.002 18.459 17.8242 18.3828 17.6211 18.3828H8.37891ZM17.6211 21.4297C17.8242 21.4297 18.002 21.5059 18.1543 21.6582C18.3066 21.8105 18.3828 21.9883 18.3828 22.1914C18.3828 22.3945 18.3066 22.5723 18.1543 22.7246C18.002 22.877 17.8242 22.9531 17.6211 22.9531H8.37891C8.17578 22.9531 7.99805 22.877 7.8457 22.7246C7.69336 22.5723 7.61719 22.3945 7.61719 22.1914C7.61719 21.9883 7.69336 21.8105 7.8457 21.6582C7.99805 21.5059 8.17578 21.4297 8.37891 21.4297H17.6211ZM3.04688 12.9492C3.04688 13.1523 3.12305 13.3301 3.27539 13.4824C3.42773 13.6348 3.60547 13.7109 3.80859 13.7109H5.33203C5.53516 13.7109 5.71289 13.6348 5.86523 13.4824C6.01758 13.3301 6.09375 13.1523 6.09375 12.9492C6.09375 12.7461 6.01758 12.5684 5.86523 12.416C5.71289 12.2637 5.53516 12.1875 5.33203 12.1875H3.80859C3.60547 12.1875 3.42773 12.2637 3.27539 12.416C3.12305 12.5684 3.04688 12.7461 3.04688 12.9492Z" fill="#F0B419"/>
</svg>
