<svg width="25" height="25" viewBox="0 0 25 25" fill="none" xmlns="http://www.w3.org/2000/svg">
<g clip-path="url(#clip0_35_484)">
<path d="M5.72916 16.1458H3.64583V24.4792H8.33333V13.9688C6.24999 16.0312 6.27604 16.1458 5.72916 16.1458Z" fill="#F0B419"/>
<path d="M11.2448 15.8385L9.375 13.9688V24.4792H21.3542V16.1458C11.2708 16.1458 11.6615 16.2656 11.2448 15.8385Z" fill="#F0B419"/>
<path d="M0.520828 15.1042H5.72916L8.85416 11.9792H3.64583L0.520828 15.1042Z" fill="#F0B419"/>
<path d="M24.4792 15.1042L21.3542 11.9792H8.85416L11.9792 15.1042H24.4792Z" fill="#F0B419"/>
<path d="M12.5 2.60425L11.4583 5.06258C12.1388 5.1616 12.83 5.1616 13.5104 5.06258L12.5 2.60425Z" fill="#F0B419"/>
<path d="M11.0729 6.0365L10.099 8.37504C11.6537 8.91725 13.3463 8.91725 14.901 8.37504C13.8021 5.73962 14 6.07817 13.8229 6.099C12.9104 6.25056 11.9776 6.22936 11.0729 6.0365Z" fill="#F0B419"/>
<path d="M9.89583 10.9375H15.1042V9.4115C13.4153 9.98457 11.5846 9.98457 9.89583 9.4115V10.9375Z" fill="#F0B419"/>
<path d="M6.62499 2.08337H8.90624C8.06722 2.60561 7.35269 3.30518 6.81283 4.13296C6.27297 4.96075 5.92087 5.89668 5.78124 6.87504C5.57447 6.9738 5.40604 7.13799 5.30203 7.34217C5.19803 7.54634 5.16424 7.77912 5.20592 8.00444C5.24759 8.22976 5.3624 8.43505 5.53256 8.58852C5.70272 8.74198 5.91873 8.83506 6.14714 8.85333C6.37556 8.87161 6.60362 8.81406 6.79601 8.68959C6.9884 8.56513 7.13439 8.3807 7.21136 8.16487C7.28832 7.94904 7.29198 7.71386 7.22175 7.49574C7.15153 7.27763 7.01134 7.08875 6.82291 6.95837C7.03944 5.61417 7.72762 4.39101 8.7641 3.50813C9.80059 2.62525 11.1176 2.14035 12.4792 2.14035C13.8407 2.14035 15.1577 2.62525 16.1942 3.50813C17.2307 4.39101 17.9189 5.61417 18.1354 6.95837C17.947 7.08875 17.8068 7.27763 17.7366 7.49574C17.6663 7.71386 17.67 7.94904 17.747 8.16487C17.8239 8.3807 17.9699 8.56513 18.1623 8.68959C18.3547 8.81406 18.5828 8.87161 18.8112 8.85333C19.0396 8.83506 19.2556 8.74198 19.4258 8.58852C19.5959 8.43505 19.7107 8.22976 19.7524 8.00444C19.7941 7.77912 19.7603 7.54634 19.6563 7.34217C19.5523 7.13799 19.3838 6.9738 19.1771 6.87504C19.0374 5.89668 18.6853 4.96075 18.1455 4.13296C17.6056 3.30518 16.8911 2.60561 16.0521 2.08337H18.3333C18.448 2.28196 18.625 2.43716 18.8368 2.52492C19.0487 2.61267 19.2835 2.62806 19.505 2.56871C19.7265 2.50936 19.9222 2.37859 20.0618 2.19667C20.2014 2.01475 20.2771 1.79185 20.2771 1.56254C20.2771 1.33323 20.2014 1.11034 20.0618 0.928415C19.9222 0.746493 19.7265 0.615717 19.505 0.556368C19.2835 0.497019 19.0487 0.512415 18.8368 0.600167C18.625 0.687918 18.448 0.843122 18.3333 1.04171H6.62499C6.51034 0.843122 6.33336 0.687918 6.12151 0.600167C5.90966 0.512415 5.67477 0.497019 5.45328 0.556368C5.23178 0.615717 5.03606 0.746493 4.89647 0.928415C4.75688 1.11034 4.68121 1.33323 4.68121 1.56254C4.68121 1.79185 4.75688 2.01475 4.89647 2.19667C5.03606 2.37859 5.23178 2.50936 5.45328 2.56871C5.67477 2.62806 5.90966 2.61267 6.12151 2.52492C6.33336 2.43716 6.51034 2.28196 6.62499 2.08337Z" fill="#F0B419"/>
</g>
<defs>
<clipPath id="clip0_35_484">
<rect width="25" height="25" fill="white"/>
</clipPath>
</defs>
</svg>
