<svg width="27" height="25" viewBox="0 0 27 25" fill="none" xmlns="http://www.w3.org/2000/svg">
<path d="M21.6009 9.58112L18.5011 10.353L14.6294 5.52848C14.4599 5.31718 14.2451 5.14664 14.0008 5.02946C13.7566 4.91228 13.4891 4.85144 13.2182 4.85144C12.9473 4.85144 12.6799 4.91228 12.4356 5.02946C12.1914 5.14664 11.9766 5.31718 11.807 5.52848L7.93532 10.353L4.77523 9.58112C4.47238 9.50863 4.156 9.51501 3.85632 9.59964C3.55664 9.68428 3.28366 9.84433 3.06347 10.0645C2.84327 10.2847 2.68321 10.5577 2.59858 10.8574C2.51395 11.1571 2.50757 11.4734 2.58005 11.7763L4.71492 19.2785C4.78788 19.5394 4.94654 19.7681 5.16534 19.9278C5.38415 20.0876 5.65035 20.169 5.92106 20.159H20.3947C20.6655 20.169 20.9317 20.0876 21.1505 19.9278C21.3693 19.7681 21.5279 19.5394 21.6009 19.2785L23.7478 11.7763C23.8171 11.4783 23.8102 11.1676 23.7277 10.8729C23.6453 10.5782 23.4899 10.3091 23.2759 10.0903C23.062 9.87158 22.7964 9.71026 22.5036 9.62126C22.2109 9.53226 21.9004 9.51845 21.6009 9.58112Z" fill="#F0B419"/>
<path d="M2.00108 8.27853C2.83375 8.27853 3.50876 7.60353 3.50876 6.77086C3.50876 5.93819 2.83375 5.26318 2.00108 5.26318C1.16842 5.26318 0.493408 5.93819 0.493408 6.77086C0.493408 7.60353 1.16842 8.27853 2.00108 8.27853Z" fill="#F0B419"/>
<path d="M24.3147 8.27853C25.1473 8.27853 25.8224 7.60353 25.8224 6.77086C25.8224 5.93819 25.1473 5.26318 24.3147 5.26318C23.482 5.26318 22.807 5.93819 22.807 6.77086C22.807 7.60353 23.482 8.27853 24.3147 8.27853Z" fill="#F0B419"/>
<path d="M13.1579 3.15244C13.9905 3.15244 14.6656 2.47743 14.6656 1.64476C14.6656 0.812094 13.9905 0.137085 13.1579 0.137085C12.3252 0.137085 11.6502 0.812094 11.6502 1.64476C11.6502 2.47743 12.3252 3.15244 13.1579 3.15244Z" fill="#F0B419"/>
<path d="M20.3947 24.5615H5.92105C5.60116 24.5615 5.29437 24.4344 5.06818 24.2082C4.84198 23.982 4.7149 23.6752 4.7149 23.3553C4.7149 23.0354 4.84198 22.7286 5.06818 22.5024C5.29437 22.2762 5.60116 22.1492 5.92105 22.1492H20.3947C20.7146 22.1492 21.0214 22.2762 21.2476 22.5024C21.4738 22.7286 21.6009 23.0354 21.6009 23.3553C21.6009 23.6752 21.4738 23.982 21.2476 24.2082C21.0214 24.4344 20.7146 24.5615 20.3947 24.5615Z" fill="#F0B419"/>
</svg>
