<svg width="25" height="25" viewBox="0 0 25 25" fill="none" xmlns="http://www.w3.org/2000/svg">
<path fill-rule="evenodd" clip-rule="evenodd" d="M14.0332 3.43306L16.3712 4.78291L9.09746 8.98242V12.2898L11.2068 13.5077V10.2003L18.4806 6.00078L20.8187 7.35064C20.9739 7.44028 21.0628 7.59419 21.0628 7.77349V12.2195C20.7344 12.1538 20.3949 12.1191 20.0472 12.1191C17.204 12.1191 14.8992 14.424 14.8992 17.2672C14.8992 17.9608 15.0367 18.6222 15.2854 19.2262L14.0332 19.9491C13.8779 20.0388 13.7001 20.0388 13.5449 19.9491L7.19175 16.2812H0.976562C0.76084 16.2812 0.585938 16.1062 0.585938 15.8905C0.585938 15.6748 0.76084 15.4999 0.976562 15.4999H6.51528V12.0816H2.90498C2.68926 12.0816 2.51436 11.9067 2.51436 11.691C2.51436 11.4753 2.68926 11.3004 2.90498 11.3004H6.51528V7.88213H0.976562C0.76084 7.88213 0.585938 7.70723 0.585938 7.4915C0.585938 7.27578 0.76084 7.10088 0.976562 7.10088H7.19189L12.3082 4.14697H9.66982C9.4541 4.14697 9.2792 3.97207 9.2792 3.75635C9.2792 3.54062 9.4541 3.36572 9.66982 3.36572H13.7891C13.8753 3.36582 13.9585 3.38999 14.0332 3.43306ZM20.0472 12.9004C17.6355 12.9004 15.6804 14.8556 15.6804 17.2672C15.6804 19.679 17.6355 21.634 20.0472 21.634C22.459 21.634 24.4141 19.679 24.4141 17.2672C24.4141 14.8555 22.459 12.9004 20.0472 12.9004ZM22.5144 16.419C21.6533 17.288 20.7981 18.1627 19.9331 19.0278C19.6802 19.2807 19.27 19.2807 19.0171 19.0278L17.5819 17.5927C17.3291 17.3398 17.3291 16.9296 17.5819 16.6767C17.8348 16.4238 18.2451 16.4238 18.4979 16.6767L19.4737 17.6524L21.597 15.5079C21.8484 15.2541 22.2584 15.2533 22.5115 15.5051C22.7646 15.7567 22.7654 16.1656 22.5144 16.419ZM7.23574 3.36582H2.90498C2.68926 3.36582 2.51436 3.54072 2.51436 3.75645C2.51436 3.97217 2.68926 4.14707 2.90498 4.14707H7.23574C7.45147 4.14707 7.62637 3.97217 7.62637 3.75645C7.62637 3.54072 7.45147 3.36582 7.23574 3.36582Z" fill="#F0B419"/>
</svg>
